<?xml version="1.0" encoding="UTF-8" standalone="no"?>
<svg
   xmlns:dc="http://purl.org/dc/elements/1.1/"
   xmlns:cc="http://creativecommons.org/ns#"
   xmlns:rdf="http://www.w3.org/1999/02/22-rdf-syntax-ns#"
   xmlns:svg="http://www.w3.org/2000/svg"
   xmlns="http://www.w3.org/2000/svg"
   version="1.1"
   id="svg2"
   xml:space="preserve"
   width="793.70135"
   height="1122.52"
   viewBox="0 0 793.70135 1122.52"><metadata
     id="metadata8"><rdf:RDF><cc:Work
         rdf:about=""><dc:format>image/svg+xml</dc:format><dc:type
           rdf:resource="http://purl.org/dc/dcmitype/StillImage" /></cc:Work></rdf:RDF></metadata><defs
     id="defs6" /><g
     id="g10"
     transform="matrix(1.3333333,0,0,-1.3333333,0,1122.52)"><text
       transform="matrix(1,0,0,-1,72,695.1)"
       style="font-variant:normal;font-weight:normal;font-size:24.7871px;font-family:CMBX12;-inkscape-font-specification:CMBX12;writing-mode:lr-tb;fill:#000000;fill-opacity:1;fill-rule:nonzero;stroke:none"
       id="text14"><tspan
         x="0 20.139519 34.082264 48.805801 59.650158 72.373375 87.096909 97.941269"
         y="0"
         id="tspan12">Contents</tspan></text><text
       transform="matrix(1,0,0,-1,72,656.136)"
       style="font-variant:normal;font-weight:normal;font-size:17.2154px;font-family:CMBX12;-inkscape-font-specification:CMBX12;writing-mode:lr-tb;fill:#000000;fill-opacity:1;fill-rule:nonzero;stroke:none"
       id="text18"><tspan
         x="0 23.679783 30.893036 41.118984 48.650719 56.561195 66.778534 77.538162 88.297783 98.51857 106.15877 112.0757 121.75936 457.56296"
         y="0"
         id="tspan16">1Introduksjon1</tspan></text><text
       transform="matrix(1,0,0,-1,72,600.31)"
       style="font-variant:normal;font-weight:normal;font-size:24.7871px;font-family:CMBX12;-inkscape-font-specification:CMBX12;writing-mode:lr-tb;fill:#000000;fill-opacity:1;fill-rule:nonzero;stroke:none"
       id="text22"><tspan
         x="0 41.828232 52.214027 66.937561 77.781921 89.171593 103.88274 119.37467 134.86661 149.58272 160.58322 169.10255 183.0453"
         y="0"
         id="tspan20">1Introduksjon</tspan></text><text
       transform="matrix(1,0,0,-1,72,561.346)"
       style="font-variant:normal;font-weight:normal;font-size:17.2154px;font-family:CMR17;-inkscape-font-specification:CMR17;writing-mode:lr-tb;fill:#000000;fill-opacity:1;fill-rule:nonzero;stroke:none"
       id="text30"><tspan
         x="0 8.7953482 16.690331 35.181393 43.525696 47.822659 54.009876 65.304901 71.400871 75.697838 84.493187 88.790146 93.087112 100.98209 107.97843 114.0744 126.26979 130.4256 132.44496 145.53899 152.53532 163.83035 172.6257 179.62204 190.91707 197.10428 201.40125 205.69821 219.24156 225.33754 240.42683 247.42317 256.21851 264.56625 273.8092 280.80554 286.90152 299.99557 307.89053 315.78552 323.68051 331.5755 337.67148"
         y="0"
         id="tspan24">Somvisttidligeres˚aerdetslik(Wennberg2002).</tspan><tspan
         x="23.686001 34.524815 39.272823 47.167805 51.464771 59.359753 71.555138 86.62722 93.623566 102.41891 110.76665 120.00961 127.00594 133.10191 146.19595 152.29193 160.1869 168.08189 175.97687 183.87186 195.16689 199.33989 201.35925 214.45329 221.44963 232.74466 241.53999 248.53635 259.83136 266.01859 270.31555 274.61252 282.95682"
         y="21.917"
         id="tspan26">IfølgeWennberg(2002)s˚aerdetslik.</tspan><tspan
         x="23.686001 35.850403 42.846741 48.942715 55.038685 67.234077 73.421288 79.517265 86.513603 99.805611 113.09763 120.09396 131.38899 144.681 151.67734 165.67174 174.44986 181.4462 192.74123 198.92844 206.82343 225.31448 232.31082 243.60585 251.95015 256.24713 262.43433 273.72937 282.52469 289.52106 295.617 306.90344 321.99274 328.98907 337.78442 346.13217 355.37512 362.37146 368.46744 381.56146 389.45645 397.35141 405.2464 413.14139"
         y="43.834999"
         id="tspan28">Dettestemmermeddetsomervisther:Wennberg2002.</tspan></text><text
       transform="matrix(1,0,0,-1,72,461.684)"
       style="font-variant:normal;font-weight:normal;font-size:24.7871px;font-family:CMBX12;-inkscape-font-specification:CMBX12;writing-mode:lr-tb;fill:#000000;fill-opacity:1;fill-rule:nonzero;stroke:none"
       id="text34"><tspan
         x="0 20.798855 33.522076 42.041401 54.764618 66.154289 78.87751 94.369446 106.763 119.48621"
         y="0"
         id="tspan32">References</tspan></text><text
       transform="matrix(1,0,0,-1,72,422.721)"
       style="font-variant:normal;font-weight:normal;font-size:17.2154px;font-family:CMR17;-inkscape-font-specification:CMR17;writing-mode:lr-tb;fill:#000000;fill-opacity:1;fill-rule:nonzero;stroke:none"
       id="text40"><tspan
         x="0 15.089298 22.085636 30.880985 39.211517 48.47168 55.468018 61.563992 69.458977 77.715477 85.832542 94.08905 104.90376 113.16027 119.25624 127.15122 135.0462 142.94119 150.83617 156.93214 165.20587 173.10085 185.03629 193.36682 204.41222 212.30721 218.40317 224.49915 232.39413 240.74188 246.83784 253.83418 266.58908 274.03818 281.93317 288.02914 292.32611 300.22107 306.31705 310.61401 318.509 327.30435 337.45111 341.74808 354.50296 363.29831 370.29465 378.18964 382.4866 388.58258 397.3779 404.37424 412.26923 418.3652 429.32108 438.11642 445.11276 449.40973 453.7067 462.05099"
         y="0"
         id="tspan36">Wennberg,J.E.(2002).“Unwarrantedvariationsinhealthcaredeliv-</tspan><tspan
         x="23.686001 30.682339 36.778313 45.122616 52.828228 57.125195 70.417206 79.212555 83.509514 87.80648 94.802818 102.6978 108.79377 113.09074 120.98572 129.78107 139.35971 144.10773 152.0027 161.50732 169.40231 176.39865 184.29362 193.08897 200.08531 213.37733 217.67429 228.06206 241.35408 248.35042 257.14575 261.44272 268.43906 276.33405 284.03967 291.03601 298.03235 306.36285 312.45883 318.57202 325.55115 331.73837 339.63336 347.35617 352.99594 361.77408"
         y="21.917999"
         id="tspan38">ery:implicationsforacademicmedicalcentres”.In:</tspan></text><text
       transform="matrix(1,0,0,-1,441.488,400.803)"
       style="font-variant:normal;font-weight:normal;font-size:17.2154px;font-family:CMTI12;-inkscape-font-specification:CMTI12;writing-mode:lr-tb;fill:#000000;fill-opacity:1;fill-rule:nonzero;stroke:none"
       id="text44"><tspan
         x="0 11.851081 26.947266"
         y="0"
         id="tspan42">BMJ</tspan></text><text
       transform="matrix(1,0,0,-1,483.004,400.803)"
       style="font-variant:normal;font-weight:normal;font-size:17.2154px;font-family:CMR17;-inkscape-font-specification:CMR17;writing-mode:lr-tb;fill:#000000;fill-opacity:1;fill-rule:nonzero;stroke:none"
       id="text52"><tspan
         x="0 7.8949823 15.789965 23.684948 27.981911 35.876892 43.771877 51.666859 59.56184"
         y="0"
         id="tspan46">325.7370,</tspan><tspan
         x="-387.31799 -378.52264 -369.72729 -360.23129 -352.3363 -344.44131 -336.54636 -328.65137 -320.75638 -312.86139 -304.9664"
         y="21.917999"
         id="tspan48">pp.961–964.</tspan><tspan
         x="-181.328"
         y="266.53"
         id="tspan50">1</tspan></text></g></svg>
