<?xml version="1.0" encoding="UTF-8" standalone="no"?>
<svg
   xmlns:dc="http://purl.org/dc/elements/1.1/"
   xmlns:cc="http://creativecommons.org/ns#"
   xmlns:rdf="http://www.w3.org/1999/02/22-rdf-syntax-ns#"
   xmlns:svg="http://www.w3.org/2000/svg"
   xmlns="http://www.w3.org/2000/svg"
   version="1.1"
   id="svg2"
   xml:space="preserve"
   width="793.70135"
   height="1122.52"
   viewBox="0 0 793.70135 1122.52"><metadata
     id="metadata8"><rdf:RDF><cc:Work
         rdf:about=""><dc:format>image/svg+xml</dc:format><dc:type
           rdf:resource="http://purl.org/dc/dcmitype/StillImage" /></cc:Work></rdf:RDF></metadata><defs
     id="defs6" /><g
     id="g10"
     transform="matrix(1.3333333,0,0,-1.3333333,0,1122.52)"><text
       transform="matrix(1,0,0,-1,72,694.893)"
       style="font-variant:normal;font-weight:normal;font-size:24.7871px;font-family:CMBX12;-inkscape-font-specification:CMBX12;writing-mode:lr-tb;fill:#000000;fill-opacity:1;fill-rule:nonzero;stroke:none"
       id="text14"><tspan
         x="0 10.385795 25.877733 41.369671 56.861607 70.804352 78.550323"
         y="0"
         id="tspan12">Innhold</tspan></text><text
       transform="matrix(1,0,0,-1,72,655.93)"
       style="font-variant:normal;font-weight:normal;font-size:17.2154px;font-family:CMBX12;-inkscape-font-specification:CMBX12;writing-mode:lr-tb;fill:#000000;fill-opacity:1;fill-rule:nonzero;stroke:none"
       id="text20"><tspan
         x="0 23.679783 30.893036 41.118984 48.650719 56.561195 66.778534 77.538162 88.297783 98.51857 106.15877 112.0757 121.75936 457.56296"
         y="0"
         id="tspan16">1Introduksjon1</tspan><tspan
         x="0 14.445442 23.282106 29.199039 38.035706 45.946182 55.361282 66.120911 73.761101 82.597771 457.5578"
         y="37.709"
         id="tspan18">Referanser1</tspan></text><text
       transform="matrix(1,0,0,-1,72,562.395)"
       style="font-variant:normal;font-weight:normal;font-size:24.7871px;font-family:CMBX12;-inkscape-font-specification:CMBX12;writing-mode:lr-tb;fill:#000000;fill-opacity:1;fill-rule:nonzero;stroke:none"
       id="text24"><tspan
         x="0 41.828232 52.214027 66.937561 77.781921 89.171593 103.88274 119.37467 134.86661 149.58272 160.58322 169.10255 183.0453"
         y="0"
         id="tspan22">1Introduksjon</tspan></text><text
       transform="matrix(1,0,0,-1,72,523.431)"
       style="font-variant:normal;font-weight:normal;font-size:17.2154px;font-family:CMR17;-inkscape-font-specification:CMR17;writing-mode:lr-tb;fill:#000000;fill-opacity:1;fill-rule:nonzero;stroke:none"
       id="text32"><tspan
         x="0 8.7953482 16.690331 35.181393 43.525696 47.822659 54.009876 65.304901 71.400871 75.697838 84.493187 88.790146 93.087112 100.98209 107.97843 114.0744 126.26979 130.4256 132.44496 145.53899 152.53532 163.83035 172.6257 179.62204 190.91707 197.10428 201.40125 205.69821 219.24156 225.33754 240.42683 247.42317 256.21851 264.56625 273.8092 280.80554 286.90152 299.99557 307.89053 315.78552 323.68051 331.5755 337.67148"
         y="0"
         id="tspan26">Somvisttidligeres˚aerdetslik(Wennberg2002).</tspan><tspan
         x="23.686001 34.524815 39.272823 47.167805 51.464771 59.359753 71.555138 86.62722 93.623566 102.41891 110.76665 120.00961 127.00594 133.10191 146.19595 152.29193 160.1869 168.08189 175.97687 183.87186 195.16689 199.33989 201.35925 214.45329 221.44963 232.74466 241.53999 248.53635 259.83136 266.01859 270.31555 274.61252 282.95682"
         y="21.917"
         id="tspan28">IfølgeWennberg(2002)s˚aerdetslik.</tspan><tspan
         x="23.686001 35.850403 42.846741 48.942715 55.038685 67.234077 73.421288 79.517265 86.513603 99.805611 113.09763 120.09396 131.38899 144.681 151.67734 165.67174 174.44986 181.4462 192.74123 198.92844 206.82343 225.31448 232.31082 243.60585 251.95015 256.24713 262.43433 273.72937 282.52469 289.52106 295.617 305.11304 320.20233 327.19867 335.99402 344.32455 353.5675 360.56384 366.65982 379.75385 387.64883 395.54379 403.43878 411.33377"
         y="43.834999"
         id="tspan30">Dettestemmermeddetsomervisther:Wennberg2002.</tspan></text><text
       transform="matrix(1,0,0,-1,72,423.769)"
       style="font-variant:normal;font-weight:normal;font-size:24.7871px;font-family:CMBX12;-inkscape-font-specification:CMBX12;writing-mode:lr-tb;fill:#000000;fill-opacity:1;fill-rule:nonzero;stroke:none"
       id="text36"><tspan
         x="0 20.798855 33.522076 42.041401 54.764618 66.154289 79.710358 95.202293 106.20281 118.92603"
         y="0"
         id="tspan34">Referanser</tspan></text><text
       transform="matrix(1,0,0,-1,72,384.806)"
       style="font-variant:normal;font-weight:normal;font-size:17.2154px;font-family:CMR17;-inkscape-font-specification:CMR17;writing-mode:lr-tb;fill:#000000;fill-opacity:1;fill-rule:nonzero;stroke:none"
       id="text42"><tspan
         x="0 15.089298 22.085636 30.880985 39.211517 48.47168 55.468018 61.563992 69.458977 79.832977 87.950035 98.324036 109.13875 119.51275 125.60873 133.50371 141.39868 149.29367 157.18866 163.28462 173.65863 181.5536 193.48904 201.83679 212.88219 220.77718 226.87315 232.96912 240.86411 249.21185 255.30783 262.30417 277.17654 284.62564 292.52063 298.61661 302.91357 310.80856 316.90454 321.20148 329.09647 337.89182 350.15607 354.45303 369.32541 378.12076 385.1171 393.01208 397.30905 403.40503 412.20038 419.19672 427.09171 433.18765 446.26105 455.0564 462.05273"
         y="0"
         id="tspan38">Wennberg,J.E.(2002).“Unwarrantedvariationsinhealthcarede-</tspan><tspan
         x="23.686001 27.982964 32.279926 40.176632 47.17297 53.268944 61.613247 69.318863 73.615822 86.907837 95.703186 100.00014 104.29711 111.29345 119.18843 125.2844 129.58138 137.47635 146.2717 155.85034 160.59836 168.49333 177.99796 185.89294 192.88928 200.78426 209.57961 216.57594 229.86797 234.16492 244.55269 257.8447 264.84103 273.63638 277.93335 284.92969 292.82468 300.5303 307.52664 314.52298 322.85349 328.94946 335.06265 342.04178 348.229 356.12399 363.8468 369.48657"
         y="21.917999"
         id="tspan40">livery:implicationsforacademicmedicalcentres”.I:</tspan></text><text
       transform="matrix(1,0,0,-1,449.184,362.888)"
       style="font-variant:normal;font-weight:normal;font-size:17.2154px;font-family:CMTI12;-inkscape-font-specification:CMTI12;writing-mode:lr-tb;fill:#000000;fill-opacity:1;fill-rule:nonzero;stroke:none"
       id="text46"><tspan
         x="0 11.851081 26.947266"
         y="0"
         id="tspan44">BMJ</tspan></text><text
       transform="matrix(1,0,0,-1,490.7,362.888)"
       style="font-variant:normal;font-weight:normal;font-size:17.2154px;font-family:CMR17;-inkscape-font-specification:CMR17;writing-mode:lr-tb;fill:#000000;fill-opacity:1;fill-rule:nonzero;stroke:none"
       id="text54"><tspan
         x="0 7.8949823 15.789965 23.684948 27.981911 35.876892 43.771877 51.666859 59.56184"
         y="0"
         id="tspan48">325.7370,</tspan><tspan
         x="-395.01401 -388.82678 -379.33078 -371.43579 -363.5408 -355.64581 -347.75085 -339.85587 -331.96088 -324.06589"
         y="21.917999"
         id="tspan50">s.961–964.</tspan><tspan
         x="-189.024"
         y="228.61501"
         id="tspan52">1</tspan></text></g></svg>
