<?xml version="1.0" encoding="UTF-8" standalone="no"?>
<svg
   xmlns:dc="http://purl.org/dc/elements/1.1/"
   xmlns:cc="http://creativecommons.org/ns#"
   xmlns:rdf="http://www.w3.org/1999/02/22-rdf-syntax-ns#"
   xmlns:svg="http://www.w3.org/2000/svg"
   xmlns="http://www.w3.org/2000/svg"
   version="1.1"
   id="svg2"
   xml:space="preserve"
   width="793.70135"
   height="1122.52"
   viewBox="0 0 793.70135 1122.52"><metadata
     id="metadata8"><rdf:RDF><cc:Work
         rdf:about=""><dc:format>image/svg+xml</dc:format><dc:type
           rdf:resource="http://purl.org/dc/dcmitype/StillImage" /></cc:Work></rdf:RDF></metadata><defs
     id="defs6" /><g
     id="g10"
     transform="matrix(1.3333333,0,0,-1.3333333,0,1122.52)"><text
       transform="matrix(1,0,0,-1,90.929,696.894)"
       style="font-variant:normal;font-weight:bold;font-size:20.6625px;font-family:'TeX Gyre Termes';-inkscape-font-specification:TeXGyreTermes-Bold;writing-mode:lr-tb;fill:#000000;fill-opacity:1;fill-rule:nonzero;stroke:none"
       id="text14"><tspan
         x="0 30.99378 39.031502 50.519863 57.400482 66.264702 76.595963 88.08432 99.572685 111.06104 119.09876 125.97939 136.31064"
         y="0"
         id="tspan12">1Introduksjon</tspan></text><text
       transform="matrix(1,0,0,-1,90.929,665.11)"
       style="font-variant:normal;font-weight:normal;font-size:14.3462px;font-family:'TeX Gyre Termes';-inkscape-font-specification:TeXGyreTermes-Regular;writing-mode:lr-tb;fill:#000000;fill-opacity:1;fill-rule:nonzero;stroke:none"
       id="text18"><tspan
         x="0 8.7655277 15.938628 20.715912 27.085625 43.598103 47.586346 54.759445 60.340118 67.513214 84.025696 91.198792 98.371895 102.36014 109.53323 119.66165 125.24232 129.23058 138.58429 144.95401 156.11534 162.48506 166.47331 175.85571 182.22543 189.39853 196.57164 202.1523 208.52202 214.89172 218.87997 225.24968 229.23793 236.41103 242.78075 252.90916 259.27887 266.45197 270.44022 277.61331 281.60156 287.18222 293.55194 297.54019 304.71329 317.23752 323.60724 327.59549 331.58371 335.57196 349.2439 359.60184 368.94122 376.11432 383.28741 388.35162 395.52472 406.47089 412.84061 416.82883 420.81708 424.80533"
         y="0"
         id="tspan16">Loremipsumdolorsitamet,consectetueradipiscingelit.Utpuruselit,</tspan></text><text
       transform="matrix(1,0,0,-1,90.929,648.173)"
       style="font-variant:normal;font-weight:normal;font-size:14.3462px;font-family:'TeX Gyre Termes';-inkscape-font-specification:TeXGyreTermes-Regular;writing-mode:lr-tb;fill:#000000;fill-opacity:1;fill-rule:nonzero;stroke:none"
       id="text22"><tspan
         x="0 6.6709828 13.040696 18.406174 22.394419 26.382662 33.555763 40.728863 44.717106 51.890205 66.580711 73.753815 77.742058 84.872116 92.045219 96.033463 102.40318 108.77289 115.1426 119.91988 126.2896 133.80701 140.17673 146.54643 153.66216 160.03186 167.20496 171.19321 178.3663 182.35455 187.93523 194.30493 198.29318 205.46628 216.18289 223.35599 227.34424 231.33247 237.70219 244.0719 251.18762 255.47713 261.84683 265.83508 269.82333 275.40399 283.73914 293.30804 300.48117 305.25845 311.62814 318.80127 322.78949 326.77774 333.95084 342.27164 349.44473 353.43298 359.8027 363.79095 370.96405 385.65454 392.9711 397.74838 403.70206 410.87518 414.8634 422.0365"
         y="0"
         id="tspan20">vestibulumut,placeratac,adipiscingvitae,felis.Curabiturdictumgravida</tspan></text><text
       transform="matrix(1,0,0,-1,90.929,631.237)"
       style="font-variant:normal;font-weight:normal;font-size:14.3462px;font-family:'TeX Gyre Termes';-inkscape-font-specification:TeXGyreTermes-Regular;writing-mode:lr-tb;fill:#000000;fill-opacity:1;fill-rule:nonzero;stroke:none"
       id="text26"><tspan
         x="0 11.161344 17.531055 24.704157 29.768366 33.756607 39.33728 47.299423 57.313068 63.682781 77.225594 83.595306 88.372589 94.742302 104.29688 108.28512 112.27336 119.44646 125.81618 130.59346 137.76656 143.99281 151.16591 158.339 165.51212 172.68521 183.84656 194.59186 204.13208 210.50179 217.33058 223.7003 227.68854 233.90045 240.27016 247.44325 254.61636 260.19702 266.56674 272.93646 276.92471 283.2944 287.28265 294.45575 300.82547 307.98422 311.97247 319.14557 325.37183 332.54492 339.71802 343.70627 350.87936 358.05246 362.04071 368.41043 372.39865 381.14984 387.51956 393.74582 404.90714 411.27686 418.44995 425.62305 431.99277"
         y="0"
         id="tspan24">mauris.Namarculibero,nonummyeget,consectetuerid,vulputatea,magna.</tspan></text><text
       transform="matrix(1,0,0,-1,90.929,614.3)"
       style="font-variant:normal;font-weight:normal;font-size:14.3462px;font-family:'TeX Gyre Termes';-inkscape-font-specification:TeXGyreTermes-Regular;writing-mode:lr-tb;fill:#000000;fill-opacity:1;fill-rule:nonzero;stroke:none"
       id="text30"><tspan
         x="0 10.357956 17.531055 24.704157 31.07387 39.82505 46.51038 52.880093 60.053192 64.041435 70.411148 77.584251 81.572495 90.323677 96.69339 103.86649 111.03959 118.21268 126.97822 133.34793 142.9025 150.07559 156.44531 163.48929 170.6624 177.0321 184.99425 192.62643 198.99614 202.98439 206.97263 213.34235 220.51544 224.50368 230.8734 236.45407 243.4837 250.6568 259.39365 266.56674 272.93646 280.10956 284.09781 288.08603 294.45575 301.62885 308.01291 319.17426 326.34735 331.12463 338.29773 344.68179 348.67004 353.73425 357.7225 363.10233 367.09058 371.0788 378.10846 385.28156 394.01837 399.59906 405.96878 413.14188 419.51157 425.88129"
         y="0"
         id="tspan28">Donecvehiculaaugueeuneque.Pellentesquehabitantmorbitristiquesenec-</tspan></text><text
       transform="matrix(1,0,0,-1,90.929,597.364)"
       style="font-variant:normal;font-weight:normal;font-size:14.3462px;font-family:'TeX Gyre Termes';-inkscape-font-specification:TeXGyreTermes-Regular;writing-mode:lr-tb;fill:#000000;fill-opacity:1;fill-rule:nonzero;stroke:none"
       id="text34"><tspan
         x="0 3.9882436 11.161344 22.265303 28.635015 38.146545 45.319645 51.689358 55.677601 62.8507 73.954659 80.324371 89.835907 100.99725 107.36696 111.3552 117.72491 123.30559 130.47868 136.8484 144.0215 155.92885 160.36182 166.73154 177.89288 184.26259 195.3522 201.72192 213.61491 217.60316 224.77626 229.9122 237.0853 241.07355 252.17751 258.54721 265.37601 271.74573 277.11121 281.09946 287.46915 293.04984 307.22388 319.97763 326.34735 333.52045 338.58466 342.57291 353.67688 360.84998 370.37585 374.36407 380.7338 387.90689 402.09531 411.66422 416.4415 422.81122"
         y="0"
         id="tspan32">tusetnetusetmalesuadafamesacturpisegestas.Maurisutleo.Cras</tspan></text><text
       transform="matrix(1,0,0,-1,90.929,580.427)"
       style="font-variant:normal;font-weight:normal;font-size:14.3462px;font-family:'TeX Gyre Termes';-inkscape-font-specification:TeXGyreTermes-Regular;writing-mode:lr-tb;fill:#000000;fill-opacity:1;fill-rule:nonzero;stroke:none"
       id="text38"><tspan
         x="0 7.1731 11.161344 17.832327 24.20204 29.337978 34.115265 45.549187 56.710529 63.080242 67.068481 74.241585 84.90081 89.678093 96.851196 104.0243 111.1974 117.56711 124.74021 135.38509 140.96576 147.33548 158.49681 171.32233 181.33597 188.50906 192.49731 196.48555 207.91948 214.28918 223.34164 227.32988 233.6996 240.06931 244.05756 251.23065 261.88989 268.5752 274.94492 280.31039 284.29865 288.2869 295.45999 302.63309 306.62134 313.79443 330.01999 337.19308 342.25729 349.43039 360.86432 365.6416 370.70581 374.69406 381.86716 389.04025 393.0285 397.01672 401.00497 412.45325 419.62634 423.61459"
         y="0"
         id="tspan36">viverrametusrhoncussem.Nullaetlectusvestibulumurnafringillaul-</tspan></text><text
       transform="matrix(1,0,0,-1,90.929,563.491)"
       style="font-variant:normal;font-weight:normal;font-size:14.3462px;font-family:'TeX Gyre Termes';-inkscape-font-specification:TeXGyreTermes-Regular;writing-mode:lr-tb;fill:#000000;fill-opacity:1;fill-rule:nonzero;stroke:none"
       id="text42"><tspan
         x="0 3.9882436 9.0524521 13.040696 19.410408 25.780121 31.360794 42.722984 50.699471 57.87257 64.242287 69.822952 76.192665 80.180908 84.169159 91.342255 101.51371 107.88342 119.64731 123.63555 130.00526 133.99352 137.98175 145.15485 155.32631 160.90698 164.89522 173.47424 179.84396 191.00531 197.37502 205.9397 209.92795 217.10104 222.23698 226.22523 233.39833 242.7664 250.08296 254.86024 260.8139 267.98703 271.97525 279.14835 290.09451 297.26761 301.25586 307.62558 313.99527 320.36499 325.14227 331.51199 335.50024 346.87677 351.65405 358.82715 362.8154 369.18512 376.01392 382.38361 391.73734 397.31802 403.68771 410.86081 414.84906 421.21878"
         y="0"
         id="tspan40">trices.Phaselluseutellussitamettortorgravidaplacerat.Integersapien</tspan></text><text
       transform="matrix(1,0,0,-1,90.929,546.554)"
       style="font-variant:normal;font-weight:normal;font-size:14.3462px;font-family:'TeX Gyre Termes';-inkscape-font-specification:TeXGyreTermes-Regular;writing-mode:lr-tb;fill:#000000;fill-opacity:1;fill-rule:nonzero;stroke:none"
       id="text46"><tspan
         x="0 6.3697128 11.735191 15.723435 24.775887 28.764132 35.133842 41.503555 48.676655 52.664902 56.653145 67.31237 71.300613 78.473717 87.526169 94.699265 99.476547 105.84626 109.83451 113.82275 120.99585 137.25009 144.29408 151.46718 155.45543 161.0361 170.0742 177.2473 181.23555 187.92087 194.29059 199.41219 204.18947 215.65208 222.02179 228.39151 237.44395 244.61705 251.79016 258.96326 265.33298 278.21585 286.19235 290.96964 297.33936 303.70905 309.28973 315.65942 322.83255 331.89932 338.26904 345.09784 351.46756 360.53436 366.11502 372.48474 388.73898 395.42432 401.79404 410.86081 414.84906 421.21878"
         y="0"
         id="tspan44">est,iaculisin,pretiumquis,viverraac,nunc.Praesentegetsemvelleo</tspan></text><text
       transform="matrix(1,0,0,-1,90.929,529.618)"
       style="font-variant:normal;font-weight:normal;font-size:14.3462px;font-family:'TeX Gyre Termes';-inkscape-font-specification:TeXGyreTermes-Regular;writing-mode:lr-tb;fill:#000000;fill-opacity:1;fill-rule:nonzero;stroke:none"
       id="text50"><tspan
         x="0 7.1731 11.161344 15.149588 20.213797 24.20204 30.571753 36.941463 45.506145 52.679245 56.667488 63.840591 70.210304 77.3834 84.556503 91.729599 102.89095 111.06828 121.08192 127.45164 134.62474 140.99446 147.36417 157.52127 161.95425 168.32396 175.49707 181.86678 185.85503 193.02812 200.20122 205.78189 213.94489 226.69865 233.87175 238.64903 245.82214 252.80873 259.98184 267.15494 271.14319 278.31628 286.07758 293.25067 300.42377 304.41202 308.40027 314.76999 321.48401 332.64532 339.01505 343.0033 349.37302 354.95367 362.12677 368.49649 375.66959 385.03766 391.40738 398.58047 405.28015 412.45325 419.62634 423.61459"
         y="0"
         id="tspan48">ultricesbibendum.Aeneanfaucibus.Morbidolornulla,malesuadaeu,pul-</tspan></text><text
       transform="matrix(1,0,0,-1,90.929,512.681)"
       style="font-variant:normal;font-weight:normal;font-size:14.3462px;font-family:'TeX Gyre Termes';-inkscape-font-specification:TeXGyreTermes-Regular;writing-mode:lr-tb;fill:#000000;fill-opacity:1;fill-rule:nonzero;stroke:none"
       id="text54"><tspan
         x="0 7.1731 11.161344 18.334444 24.704157 32.996262 39.365974 43.354218 50.469933 61.631275 68.804375 72.792618 76.780861 80.769104 89.864594 96.234306 102.60402 109.71973 116.89284 124.06594 128.05418 132.04242 138.41214 146.76163 156.33054 163.50365 168.28093 174.65063 181.82375 185.81198 189.80023 196.97333 205.26543 211.63515 218.80824 225.17795 229.1662 236.33929 244.63141 250.21207 256.58179 267.74313 274.91623 281.28595 289.57803 296.75116 303.92426 307.91248 311.90073 318.27045 326.60559 336.96353 344.13666 351.30975 357.67944 367.57834 374.39279 380.76248 385.82669 389.81494 396.98804 406.08353 413.25662 418.03394 424.40363"
         y="0"
         id="tspan52">vinarat,mollisac,nulla.Curabiturauctorsempernulla.Donecvariusorci</tspan></text><text
       transform="matrix(1,0,0,-1,90.929,495.745)"
       style="font-variant:normal;font-weight:normal;font-size:14.3462px;font-family:'TeX Gyre Termes';-inkscape-font-specification:TeXGyreTermes-Regular;writing-mode:lr-tb;fill:#000000;fill-opacity:1;fill-rule:nonzero;stroke:none"
       id="text58"><tspan
         x="0 6.3697128 13.184157 19.553871 26.827394 31.891603 35.879845 41.460518 48.633617 54.214291 62.477699 72.835655 80.008759 83.997002 92.877296 100.0504 104.03864 111.21174 121.67012 132.83147 136.8197 143.74892 150.11864 157.29173 164.46484 171.63794 178.81104 188.48038 194.85008 202.02319 208.95241 215.32211 221.69183 228.06154 235.23463 246.39598 251.97665 258.34637 268.80475 275.17447 279.16272 285.53241 289.52066 293.81018 300.1799 307.353 314.52609 321.45529 327.03598 333.4057 340.5788 344.56702 348.55527 352.54352 356.53177 365.39771 372.44171 379.61481 383.60303 389.18372 396.11292 403.28604 407.27426 413.64398 424.80533"
         y="0"
         id="tspan56">egetrisus.Duisnibhmi,congueeu,accumsaneleifend,sagittisquis,diam.</tspan></text><text
       transform="matrix(1,0,0,-1,90.929,478.808)"
       style="font-variant:normal;font-weight:normal;font-size:14.3462px;font-family:'TeX Gyre Termes';-inkscape-font-specification:TeXGyreTermes-Regular;writing-mode:lr-tb;fill:#000000;fill-opacity:1;fill-rule:nonzero;stroke:none"
       id="text62"><tspan
         x="0 10.357956 17.531055 21.5193 30.686522 37.056236 43.870678 50.240391 57.815186 64.988289 69.765572 76.135284 83.710075 89.290749 93.278992 100.85378 107.2235 118.38484 124.75455 132.32935 139.50244 144.27974 150.64944 158.22424 165.39734 169.38559 176.55869 183.73178 187.72003 193.3007 198.88138 202.86961 217.61751 222.68172 229.85481 233.84306 238.90727 246.08037 257.2417"
         y="0"
         id="tspan60">Duisegetorcisitametorcidignissimrutrum.</tspan></text><text
       transform="matrix(1,0,0,-1,112.448,461.872)"
       style="font-variant:normal;font-weight:normal;font-size:14.3462px;font-family:'TeX Gyre Termes';-inkscape-font-specification:TeXGyreTermes-Regular;writing-mode:lr-tb;fill:#000000;fill-opacity:1;fill-rule:nonzero;stroke:none"
       id="text66"><tspan
         x="0 9.999301 16.369015 29.911827 37.084927 44.258026 50.642086 54.630329 58.618572 65.791672 72.964775 76.953018 83.322731 89.534637 94.31192 99.376129 103.36437 110.53747 117.71057 121.69881 125.68706 129.67531 138.44083 144.81055 151.02245 157.39217 164.56526 168.5535 174.13417 185.29552 192.46861 202.03754 207.61821 214.79131 221.9644 228.33412 232.32236 238.69208 244.27275 250.48465 256.06534 263.23843 267.22665 271.2149 275.20316 281.57288 285.5611 289.54935 296.72244 303.89557 307.88379 317.45273 324.13803 330.50775 334.496 340.69354 351.05151 355.03976 360.62042 364.60867 372.58517 385.33893 392.51202 397.28931 404.4624"
         y="0"
         id="tspan64">Namduiligula,fringillaa,euismodsodales,sollicitudinvel,wisi.Morbi</tspan></text><text
       transform="matrix(1,0,0,-1,90.929,444.935)"
       style="font-variant:normal;font-weight:normal;font-size:14.3462px;font-family:'TeX Gyre Termes';-inkscape-font-specification:TeXGyreTermes-Regular;writing-mode:lr-tb;fill:#000000;fill-opacity:1;fill-rule:nonzero;stroke:none"
       id="text70"><tspan
         x="0 6.3697128 13.542812 19.912525 23.900768 31.07387 38.490856 42.479099 49.652199 54.429482 60.799194 74.600243 81.773338 88.946442 98.759239 102.74748 109.92059 115.30041 119.28865 126.46175 134.49562 144.50928 150.87898 164.66568 168.65393 175.02364 181.39336 188.56645 196.80118 200.78941 204.77766 211.95076 218.32047 223.09776 230.27086 236.68361 243.8567 248.63399 255.00371 258.99194 262.98019 270.15329 283.95435 290.32404 294.31229 300.72504 304.71329 311.88638 319.05948 326.23257 331.36853 335.35678 339.345 347.5654 354.73849 358.72675 362.71497 369.08469 375.45441 381.8815 389.0546 393.04285 397.0311 402.09531 406.08353 412.45325 416.4415 422.81122"
         y="0"
         id="tspan68">auctorloremnonjusto.Namlacuslibero,pretiumat,lobortisvitae,ultricies</tspan></text><text
       transform="matrix(1,0,0,-1,90.929,427.999)"
       style="font-variant:normal;font-weight:normal;font-size:14.3462px;font-family:'TeX Gyre Termes';-inkscape-font-specification:TeXGyreTermes-Regular;writing-mode:lr-tb;fill:#000000;fill-opacity:1;fill-rule:nonzero;stroke:none"
       id="text74"><tspan
         x="0 6.3697128 10.357956 17.602787 21.59103 27.960743 31.948988 35.937229 43.110332 48.691002 57.241337 67.599297 74.772392 81.945496 88.315208 98.328857 104.69857 108.68681 112.67506 119.71904 126.89214 133.26186 137.25009 144.49492 148.48317 155.65627 160.79221 164.78046 171.95355 180.37477 185.95544 192.32516 203.1422 209.5119 215.88162 222.25133 229.42442 240.58577 246.16644 252.53616 263.36755 270.54065 274.52887 281.702 288.07169 295.24478 302.41791 309.591 320.75235 327.99716 334.36688 339.14417 345.51389 353.14606 357.13431 361.12256 368.29565 375.46875 379.457 389.48499 395.85471 399.84293 403.83118 410.87518 418.04828 424.41797"
         y="0"
         id="tspan72">et,tellus.Donecaliquet,tortorsedaccumsanbibendum,eratligulaaliquet</tspan></text><text
       transform="matrix(1,0,0,-1,90.929,411.062)"
       style="font-variant:normal;font-weight:normal;font-size:14.3462px;font-family:'TeX Gyre Termes';-inkscape-font-specification:TeXGyreTermes-Regular;writing-mode:lr-tb;fill:#000000;fill-opacity:1;fill-rule:nonzero;stroke:none"
       id="text78"><tspan
         x="0 11.161344 17.531055 24.704157 31.877256 38.246967 46.051304 53.224403 57.212646 61.20089 67.570602 78.043327 85.216431 90.28064 97.453735 103.82345 108.60073 119.07346 126.24656 133.41966 137.4079 148.68402 159.84537 166.21507 170.20332 177.37642 187.0601 197.53282 208.69417 212.68242 222.59564 235.34941 242.52251 247.29979 254.4729 262.56415 268.93387 279.40659 286.57968 291.35696 297.72668 305.81793 312.18765 320.2789 327.45203 331.44025 337.02094 345.11218 352.28528 358.655 365.82809 373.00119 377.77847 384.14819 389.2124 393.20065 401.2919 412.45325 419.62634 423.61459"
         y="0"
         id="tspan76">magna,vitaeornareodiometusami.Morbiacorcietnislhendreritmol-</tspan></text><text
       transform="matrix(1,0,0,-1,90.929,394.126)"
       style="font-variant:normal;font-weight:normal;font-size:14.3462px;font-family:'TeX Gyre Termes';-inkscape-font-specification:TeXGyreTermes-Regular;writing-mode:lr-tb;fill:#000000;fill-opacity:1;fill-rule:nonzero;stroke:none"
       id="text82"><tspan
         x="0 3.9882436 7.9764872 13.557159 22.250956 30.227444 37.400543 42.981216 50.154316 56.524029 63.697128 70.870232 74.858475 80.43914 86.019814 96.090851 103.26395 110.95351 122.11485 128.48457 134.06525 139.6459 146.01562 154.70943 164.27834 169.05562 175.42534 184.70732 191.88043 198.25014 208.32117 214.69089 221.86398 225.85223 232.22194 240.93008 248.56226 254.93198 258.92023 262.90845 269.27817 276.45126 280.43951 286.80923 292.38989 299.41953 306.59265 316.63498 326.70602 333.87912 341.05222 345.04047 349.02869 355.39841 364.10657 373.67548 380.84857 395.71124 401.2919 408.465 414.83472 418.82297 422.81122"
         y="0"
         id="tspan80">lis.Suspendisseutmassa.Crasnecante.Pellentesqueanulla.Cumsociis</tspan></text><text
       transform="matrix(1,0,0,-1,90.929,377.189)"
       style="font-variant:normal;font-weight:normal;font-size:14.3462px;font-family:'TeX Gyre Termes';-inkscape-font-specification:TeXGyreTermes-Regular;writing-mode:lr-tb;fill:#000000;fill-opacity:1;fill-rule:nonzero;stroke:none"
       id="text86"><tspan
         x="0 7.1731 13.542812 17.531055 24.704157 31.733795 38.906895 48.863155 56.036259 62.405972 69.579071 75.948784 79.937027 83.92527 91.098373 98.271469 107.43869 113.8084 121.39754 132.55888 138.9286 146.1017 153.2748 157.26305 166.43027 173.60336 177.59161 186.75883 193.93193 200.30165 205.43759 209.42583 216.59892 221.66313 225.65138 232.02109 239.1942 246.78333 257.94467 265.11777 272.29086 276.27911 282.64883 288.22949 295.40262 302.57571 308.9454 314.52609 320.89581 327.2655 331.25375 338.42685 346.79068 351.85489 355.84314 363.01624 367.00449 373.37421 380.5473 384.53555 391.70865 400.8902 412.05154 419.22467 424.80533"
         y="0"
         id="tspan84">natoquepenatibusetmagnisdisparturientmontes,nasceturridiculusmus.</tspan></text><text
       transform="matrix(1,0,0,-1,90.929,360.253)"
       style="font-variant:normal;font-weight:normal;font-size:14.3462px;font-family:'TeX Gyre Termes';-inkscape-font-specification:TeXGyreTermes-Regular;writing-mode:lr-tb;fill:#000000;fill-opacity:1;fill-rule:nonzero;stroke:none"
       id="text90"><tspan
         x="0 10.357956 14.3462 18.334444 25.364082 32.537182 38.906895 53.210056 57.198299 61.186543 68.359642 74.729355 78.717598 85.890701 93.063797 100.2369 107.38131 114.55441 119.61861 126.79172 133.16142 141.39615 151.40979 158.5829 162.57114 166.55939 176.07091 183.24402 187.23225 191.2205 197.59021 208.75156 215.12126 222.29437 227.43031 234.60341 240.97311 248.89223 255.57756 261.94727 267.31274 271.30099 275.28925 282.46234 289.63544 293.62369 300.79678 315.09995 319.08817 326.26129 331.39722 338.57031 342.55856 348.13922 356.37396 364.00613 370.37585 374.36407 378.35233 384.72205 391.89514 395.88339 402.25311 407.83377 414.8634 422.0365"
         y="0"
         id="tspan88">Aliquamtincidunturna.Nullaullamcorpervestibulumturpis.Pellentesque</tspan></text><text
       transform="matrix(1,0,0,-1,90.929,343.316)"
       style="font-variant:normal;font-weight:normal;font-size:14.3462px;font-family:'TeX Gyre Termes';-inkscape-font-specification:TeXGyreTermes-Regular;writing-mode:lr-tb;fill:#000000;fill-opacity:1;fill-rule:nonzero;stroke:none"
       id="text94"><tspan
         x="0 6.3697128 13.542812 18.320097 23.900768 31.07387 40.241093 44.229336 51.402435 57.772148 61.760391 68.933495 78.100716 89.262054 95.631767 102.80487 107.86908 111.85732 117.438"
         y="0"
         id="tspan92">cursusluctusmauris.</tspan></text><text
       transform="matrix(1,0,0,-1,112.448,326.38)"
       style="font-variant:normal;font-weight:normal;font-size:14.3462px;font-family:'TeX Gyre Termes';-inkscape-font-specification:TeXGyreTermes-Regular;writing-mode:lr-tb;fill:#000000;fill-opacity:1;fill-rule:nonzero;stroke:none"
       id="text98"><tspan
         x="0 9.999301 16.369015 29.911827 37.084927 44.258026 50.642086 54.630329 58.618572 65.791672 72.964775 76.953018 83.322731 89.534637 94.31192 99.376129 103.36437 110.53747 117.71057 121.69881 125.68706 129.67531 138.44083 144.81055 151.02245 157.39217 164.56526 168.5535 174.13417 185.29552 192.46861 202.03754 207.61821 214.79131 221.9644 228.33412 232.32236 238.69208 244.27275 250.48465 256.06534 263.23843 267.22665 271.2149 275.20316 281.57288 285.5611 289.54935 296.72244 303.89557 307.88379 317.45273 324.13803 330.50775 334.496 340.69354 351.05151 355.03976 360.62042 364.60867 372.58517 385.33893 392.51202 397.28931 404.4624"
         y="0"
         id="tspan96">Namduiligula,fringillaa,euismodsodales,sollicitudinvel,wisi.Morbi</tspan></text><text
       transform="matrix(1,0,0,-1,90.929,309.443)"
       style="font-variant:normal;font-weight:normal;font-size:14.3462px;font-family:'TeX Gyre Termes';-inkscape-font-specification:TeXGyreTermes-Regular;writing-mode:lr-tb;fill:#000000;fill-opacity:1;fill-rule:nonzero;stroke:none"
       id="text102"><tspan
         x="0 6.3697128 13.542812 19.912525 23.900768 31.07387 38.490856 42.479099 49.652199 54.429482 60.799194 74.600243 81.773338 88.946442 98.759239 102.74748 109.92059 115.30041 119.28865 126.46175 134.49562 144.50928 150.87898 164.66568 168.65393 175.02364 181.39336 188.56645 196.80118 200.78941 204.77766 211.95076 218.32047 223.09776 230.27086 236.68361 243.8567 248.63399 255.00371 258.99194 262.98019 270.15329 283.95435 290.32404 294.31229 300.72504 304.71329 311.88638 319.05948 326.23257 331.36853 335.35678 339.345 347.5654 354.73849 358.72675 362.71497 369.08469 375.45441 381.8815 389.0546 393.04285 397.0311 402.09531 406.08353 412.45325 416.4415 422.81122"
         y="0"
         id="tspan100">auctorloremnonjusto.Namlacuslibero,pretiumat,lobortisvitae,ultricies</tspan></text><text
       transform="matrix(1,0,0,-1,90.929,292.507)"
       style="font-variant:normal;font-weight:normal;font-size:14.3462px;font-family:'TeX Gyre Termes';-inkscape-font-specification:TeXGyreTermes-Regular;writing-mode:lr-tb;fill:#000000;fill-opacity:1;fill-rule:nonzero;stroke:none"
       id="text106"><tspan
         x="0 6.3697128 10.357956 17.602787 21.59103 27.960743 31.948988 35.937229 43.110332 48.691002 57.241337 67.599297 74.772392 81.945496 88.315208 98.328857 104.69857 108.68681 112.67506 119.71904 126.89214 133.26186 137.25009 144.49492 148.48317 155.65627 160.79221 164.78046 171.95355 180.37477 185.95544 192.32516 203.1422 209.5119 215.88162 222.25133 229.42442 240.58577 246.16644 252.53616 263.36755 270.54065 274.52887 281.702 288.07169 295.24478 302.41791 309.591 320.75235 327.99716 334.36688 339.14417 345.51389 353.14606 357.13431 361.12256 368.29565 375.46875 379.457 389.48499 395.85471 399.84293 403.83118 410.87518 418.04828 424.41797"
         y="0"
         id="tspan104">et,tellus.Donecaliquet,tortorsedaccumsanbibendum,eratligulaaliquet</tspan></text><text
       transform="matrix(1,0,0,-1,90.929,275.57)"
       style="font-variant:normal;font-weight:normal;font-size:14.3462px;font-family:'TeX Gyre Termes';-inkscape-font-specification:TeXGyreTermes-Regular;writing-mode:lr-tb;fill:#000000;fill-opacity:1;fill-rule:nonzero;stroke:none"
       id="text110"><tspan
         x="0 11.161344 17.531055 24.704157 31.877256 38.246967 46.051304 53.224403 57.212646 61.20089 67.570602 78.043327 85.216431 90.28064 97.453735 103.82345 108.60073 119.07346 126.24656 133.41966 137.4079 148.68402 159.84537 166.21507 170.20332 177.37642 187.0601 197.53282 208.69417 212.68242 222.59564 235.34941 242.52251 247.29979 254.4729 262.56415 268.93387 279.40659 286.57968 291.35696 297.72668 305.81793 312.18765 320.2789 327.45203 331.44025 337.02094 345.11218 352.28528 358.655 365.82809 373.00119 377.77847 384.14819 389.2124 393.20065 401.2919 412.45325 419.62634 423.61459"
         y="0"
         id="tspan108">magna,vitaeornareodiometusami.Morbiacorcietnislhendreritmol-</tspan></text><text
       transform="matrix(1,0,0,-1,90.929,258.634)"
       style="font-variant:normal;font-weight:normal;font-size:14.3462px;font-family:'TeX Gyre Termes';-inkscape-font-specification:TeXGyreTermes-Regular;writing-mode:lr-tb;fill:#000000;fill-opacity:1;fill-rule:nonzero;stroke:none"
       id="text114"><tspan
         x="0 3.9882436 7.9764872 13.557159 22.250956 30.227444 37.400543 42.981216 50.154316 56.524029 63.697128 70.870232 74.858475 80.43914 86.019814 96.090851 103.26395 110.95351 122.11485 128.48457 134.06525 139.6459 146.01562 154.70943 164.27834 169.05562 175.42534 184.70732 191.88043 198.25014 208.32117 214.69089 221.86398 225.85223 232.22194 240.93008 248.56226 254.93198 258.92023 262.90845 269.27817 276.45126 280.43951 286.80923 292.38989 299.41953 306.59265 316.63498 326.70602 333.87912 341.05222 345.04047 349.02869 355.39841 364.10657 373.67548 380.84857 395.71124 401.2919 408.465 414.83472 418.82297 422.81122"
         y="0"
         id="tspan112">lis.Suspendisseutmassa.Crasnecante.Pellentesqueanulla.Cumsociis</tspan></text><text
       transform="matrix(1,0,0,-1,90.929,241.697)"
       style="font-variant:normal;font-weight:normal;font-size:14.3462px;font-family:'TeX Gyre Termes';-inkscape-font-specification:TeXGyreTermes-Regular;writing-mode:lr-tb;fill:#000000;fill-opacity:1;fill-rule:nonzero;stroke:none"
       id="text118"><tspan
         x="0 7.1731 13.542812 17.531055 24.704157 31.733795 38.906895 48.863155 56.036259 62.405972 69.579071 75.948784 79.937027 83.92527 91.098373 98.271469 107.43869 113.8084 121.39754 132.55888 138.9286 146.1017 153.2748 157.26305 166.43027 173.60336 177.59161 186.75883 193.93193 200.30165 205.43759 209.42583 216.59892 221.66313 225.65138 232.02109 239.1942 246.78333 257.94467 265.11777 272.29086 276.27911 282.64883 288.22949 295.40262 302.57571 308.9454 314.52609 320.89581 327.2655 331.25375 338.42685 346.79068 351.85489 355.84314 363.01624 367.00449 373.37421 380.5473 384.53555 391.70865 400.8902 412.05154 419.22467 424.80533"
         y="0"
         id="tspan116">natoquepenatibusetmagnisdisparturientmontes,nasceturridiculusmus.</tspan></text><text
       transform="matrix(1,0,0,-1,90.929,224.761)"
       style="font-variant:normal;font-weight:normal;font-size:14.3462px;font-family:'TeX Gyre Termes';-inkscape-font-specification:TeXGyreTermes-Regular;writing-mode:lr-tb;fill:#000000;fill-opacity:1;fill-rule:nonzero;stroke:none"
       id="text122"><tspan
         x="0 10.357956 14.3462 18.334444 25.364082 32.537182 38.906895 53.210056 57.198299 61.186543 68.359642 74.729355 78.717598 85.890701 93.063797 100.2369 107.38131 114.55441 119.61861 126.79172 133.16142 141.39615 151.40979 158.5829 162.57114 166.55939 176.07091 183.24402 187.23225 191.2205 197.59021 208.75156 215.12126 222.29437 227.43031 234.60341 240.97311 248.89223 255.57756 261.94727 267.31274 271.30099 275.28925 282.46234 289.63544 293.62369 300.79678 315.09995 319.08817 326.26129 331.39722 338.57031 342.55856 348.13922 356.37396 364.00613 370.37585 374.36407 378.35233 384.72205 391.89514 395.88339 402.25311 407.83377 414.8634 422.0365"
         y="0"
         id="tspan120">Aliquamtincidunturna.Nullaullamcorpervestibulumturpis.Pellentesque</tspan></text><text
       transform="matrix(1,0,0,-1,90.929,207.824)"
       style="font-variant:normal;font-weight:normal;font-size:14.3462px;font-family:'TeX Gyre Termes';-inkscape-font-specification:TeXGyreTermes-Regular;writing-mode:lr-tb;fill:#000000;fill-opacity:1;fill-rule:nonzero;stroke:none"
       id="text126"><tspan
         x="0 6.3697128 13.542812 18.320097 23.900768 31.07387 40.241093 44.229336 51.402435 57.772148 61.760391 68.933495 78.100716 89.262054 95.631767 102.80487 107.86908 111.85732 117.438"
         y="0"
         id="tspan124">cursusluctusmauris.</tspan></text><text
       transform="matrix(1,0,0,-1,301.539,142.243)"
       style="font-variant:normal;font-weight:normal;font-size:14.3462px;font-family:'TeX Gyre Termes';-inkscape-font-specification:TeXGyreTermes-Regular;writing-mode:lr-tb;fill:#000000;fill-opacity:1;fill-rule:nonzero;stroke:none"
       id="text130"><tspan
         x="0"
         y="0"
         id="tspan128">1</tspan></text></g></svg>
