<?xml version="1.0" encoding="UTF-8" standalone="no"?>
<svg
   xmlns:dc="http://purl.org/dc/elements/1.1/"
   xmlns:cc="http://creativecommons.org/ns#"
   xmlns:rdf="http://www.w3.org/1999/02/22-rdf-syntax-ns#"
   xmlns:svg="http://www.w3.org/2000/svg"
   xmlns="http://www.w3.org/2000/svg"
   version="1.1"
   id="svg2"
   xml:space="preserve"
   width="793.70135"
   height="1122.52"
   viewBox="0 0 793.70135 1122.52"><metadata
     id="metadata8"><rdf:RDF><cc:Work
         rdf:about=""><dc:format>image/svg+xml</dc:format><dc:type
           rdf:resource="http://purl.org/dc/dcmitype/StillImage" /></cc:Work></rdf:RDF></metadata><defs
     id="defs6" /><g
     id="g10"
     transform="matrix(1.3333333,0,0,-1.3333333,0,1122.52)"><text
       transform="matrix(1,0,0,-1,90.929,696.761)"
       style="font-variant:normal;font-weight:normal;font-size:20.6625px;font-family:CMBX12;-inkscape-font-specification:CMBX12;writing-mode:lr-tb;fill:#000000;fill-opacity:1;fill-rule:nonzero;stroke:none"
       id="text14"><tspan
         x="0 34.86797 43.525555 55.79908 64.838928 74.333344 86.596535 99.510597 112.42466 124.69405 133.86407 140.96577 152.58842"
         y="0"
         id="tspan12">1Introduksjon</tspan></text><text
       transform="matrix(1,0,0,-1,90.929,665.618)"
       style="font-variant:normal;font-weight:normal;font-size:14.3462px;font-family:CMR12;-inkscape-font-specification:CMR12;writing-mode:lr-tb;fill:#000000;fill-opacity:1;fill-rule:nonzero;stroke:none"
       id="text74"><tspan
         x="0 8.7770052 15.800904 21.263937 27.507404 42.757416 46.65958 54.463913 60.004417 67.808746 83.058762 90.863091 97.886993 101.78916 108.81306 117.8196 123.36011 127.26227 136.26881 143.29271 154.99921 161.24268 166.70572 174.38094 180.62439 187.6483 195.45262 200.99313 207.2366 213.48006 218.9431 225.18657 230.6496 238.45393 244.69739 253.70393 260.72784 268.53217 272.43433 280.23868 284.14084 289.68134 295.9248 299.82697 307.63132 318.19873 324.44217 328.34436 332.24652 337.70953 347.47931 358.00943 367.01596 374.82031 382.62463 388.08768 395.892 404.97601 411.21948 415.12164 419.0238 424.48685"
         y="0"
         id="tspan16">Loremipsumdolorsitamet,consectetueradipiscingelit.Utpuruselit,</tspan><tspan
         x="0 7.0267687 13.270235 18.810738 24.273771 28.175938 35.98027 43.784603 47.686768 55.4911 73.007812 80.812141 86.275177 96.274483 104.07881 107.98098 115.00488 121.24834 127.49181 132.95485 139.97874 151.26633 158.29024 164.53369 174.533 181.5569 189.36124 193.2634 201.06773 204.96989 210.51041 216.75386 220.65604 228.46037 241.30882 248.70859 252.61076 258.07379 265.09769 271.34116 281.3548 285.64719 291.89066 295.79282 299.69498 305.2355 318.77829 328.92395 336.72827 342.19131 349.21521 357.01953 360.92169 366.38474 374.18906 385.47665 393.28098 397.18317 403.42664 408.88965 416.694"
         y="16.936001"
         id="tspan18">vestibulumut,placeratac,adipiscingvitae,felis.Curabiturdictum</tspan><tspan
         x="0 7.0238996 12.486933 19.123484 26.537601 30.439768 38.244099 52.197212 63.903713 70.927612 78.731949 84.194977 88.097145 93.63765 110.52312 121.05324 128.07713 146.71284 153.73676 159.19978 165.44325 180.17679 184.07896 187.98112 196.17281 202.41628 207.8793 214.90321 226.29408 234.09842 241.12231 248.53931 256.34363 268.05014 279.36929 293.71262 299.95609 306.97998 313.22345 318.68649 330.07736 336.32083 343.34473 351.14908 356.68958 362.93304 369.17651 374.63953 380.883 386.34604 394.15036 400.39383 412.78607 416.68826 424.49258"
         y="33.873001"
         id="tspan20">gravidamauris.Namarculibero,nonummyeget,consectetuerid,</tspan><tspan
         x="0 7.4141164 15.218449 19.120615 26.924948 34.729282 40.192314 47.216213 52.679245 65.278076 72.301979 82.989899 94.696396 101.7203 108.74419 116.54853 123.57243 138.7507 149.47879 156.5027 164.30702 170.55049 183.14932 190.1761 196.41956 204.22389 208.12607 214.36952 222.17386 226.07603 239.45529 246.47919 254.28352 261.30743 269.11176 281.7106 287.95407 302.12811 309.93243 316.1759 323.59003 331.39435 337.63782 352.8161 361.98618 368.22964 372.13181 376.034 382.27747 389.68008 395.14313 401.3866 406.92709 414.34122 422.14554"
         y="50.808998"
         id="tspan22">vulputatea,magna.Donecvehiculaaugueeuneque.Pellentesque</tspan><tspan
         x="0 7.8043327 14.828233 22.632565 26.534731 31.997765 39.021664 46.438648 55.316078 67.022575 74.046478 79.509506 87.2995 94.616058 100.07909 105.54212 109.44429 114.98479 120.44782 124.34999 131.76411 139.56844 149.2263 154.7668 161.01027 168.81461 175.05807 181.30154 186.76457 194.56891 203.5238 209.76727 218.6447 226.44904 232.69249 238.15553 245.95985 254.91476 261.15823 270.03564 281.74216 288.76605 292.66821 298.91168 304.45218 312.25653 319.28043 327.08475 337.52304 341.81543 348.83932 360.54584 366.78931 375.7442 382.75375 392.41162 397.87463 405.67899 411.142 418.94635 422.84851"
         y="67.746002"
         id="tspan24">habitantmorbitristiquesenectusetnetusetmalesuadafamesacturpis</tspan><tspan
         x="0 6.2434664 13.267365 19.510832 25.051334 30.514368 37.538265 43.07877 58.013165 70.884575 77.90847 85.712807 91.175842 95.078003 106.90215 114.70647 126.45315 130.35532 136.59879 143.62268 158.55707 168.7027 174.16574 181.18964 193.01378 200.42789 204.3157 211.34248 217.58595 223.04898 228.51201 241.81955 253.52605 259.7695 265.23254 273.03687 284.86102 290.32404 298.12839 305.15228 312.9566 319.20007 326.99008 338.81421 344.35471 350.59818 362.30469 377.23907 387.78354 395.57352 399.47568 403.37784 416.68536 422.92883"
         y="84.681999"
         id="tspan26">egestas.Maurisutleo.Crasviverrametusrhoncussem.Nullaet</tspan><tspan
         x="0 3.9021664 10.145633 16.389099 21.852131 29.656466 40.691563 47.71833 53.961796 59.5023 64.965332 68.8675 76.671829 84.476166 88.378334 96.182663 113.38376 121.18809 126.65112 134.45546 146.97395 151.26633 156.72937 160.63153 168.43587 175.45976 179.36194 183.2641 187.16626 199.68475 207.48909 211.39125 216.85429 222.31732 226.21948 232.46295 238.70642 244.24692 256.8429 266.40033 274.20465 281.22855 286.76907 293.01251 296.9147 300.81686 308.62119 319.65628 325.89975 339.19867 344.66171 350.90518 354.80734 358.7095 366.51385 377.54895 383.08945 386.99161 397.96359 404.98749 416.694 422.93744"
         y="101.619"
         id="tspan28">lectusvestibulumurnafringillaultrices.Phaselluseutellussitamet</tspan><tspan
         x="0 5.4630327 12.486933 17.949965 23.412998 30.436897 42.083141 49.107044 54.570076 61.19228 68.6064 72.508568 80.312897 93.520012 101.32434 105.22651 112.2504 118.49387 124.73734 130.20038 137.22427 142.6873 157.32043 162.38751 169.80449 175.26753 181.51099 188.5349 194.77835 206.41026 211.95076 218.97466 226.77899 230.68115 236.92462 250.91217 257.15564 262.69614 268.15918 278.61755 282.51971 289.54361 295.78708 303.57706 307.47925 311.38141 323.1051 327.00729 334.81161 345.26999 353.07434 358.53735 364.78082 370.24387 374.14603 381.95035 399.82571 407.23984 415.04416 418.94635 424.48685"
         y="118.555"
         id="tspan30">tortorgravidaplacerat.Integersapienest,iaculisin,pretiumquis,</tspan><tspan
         x="0 7.4141164 11.316282 18.343052 24.586517 30.049551 35.512585 46.553417 53.57732 59.820786 67.883347 75.300331 83.104668 90.908997 97.152466 107.08004 116.63747 122.10051 129.1244 135.36787 140.90837 147.15184 154.56883 164.0488 170.29227 177.31616 183.55963 193.05394 198.59445 204.83791 220.5757 227.60246 233.84593 241.76503 245.66719 251.91066 262.96585 270.77017 274.67233 280.13538 285.59842 289.50058 295.74405 301.98752 311.5593 319.36362 323.26581 331.45749 337.70093 345.50528 353.3096 361.11395 372.82043 382.74802 393.27811 399.52158 407.32593 413.5694 420.59329"
         y="135.492"
         id="tspan32">viverraac,nunc.Praesentegetsemvelleoultricesbibendum.Aenean</tspan><tspan
         x="0 4.2923832 11.316282 19.120615 25.364082 29.266249 37.07058 44.874912 50.415417 67.071358 79.942764 86.952316 92.415352 100.21968 110.97933 118.78367 125.80756 129.70973 136.73363 149.03981 156.45679 164.26112 168.16328 172.06546 179.08936 190.37981 202.08632 209.11021 213.01237 219.25584 224.79634 232.60068 239.62457 247.42891 261.3103 267.55377 275.35809 286.64856 294.45288 302.25723 306.15939 313.57349 317.47568 325.28 332.30389 344.61008 351.63397 357.09702 368.40179 380.10831 387.1322 391.03436 394.93655 398.83871 411.22235 418.24625 424.48972"
         y="152.42799"
         id="tspan34">faucibus.Morbidolornulla,malesuadaeu,pulvinarat,mollisac,</tspan><tspan
         x="0 7.4169855 15.221318 19.123484 23.025652 30.049551 44.295326 54.44096 62.245293 67.708328 74.732224 82.53656 86.438721 91.901756 99.706093 111.22322 118.24712 126.05145 132.29492 137.75795 144.78185 156.28464 161.82513 168.0686 179.7751 187.96678 194.21025 205.72737 213.14436 220.9487 224.85086 228.75302 235.77693 250.02271 260.75079 267.77469 275.57901 281.82248 294.12006 300.74512 307.76904 313.23206 317.13422 324.93857 336.53317 343.55707 349.02008 355.26355 365.21982 371.46329 378.48718 384.73065 396.24777 401.71082 405.61298 411.15347 418.95782 424.49832"
         y="169.36501"
         id="tspan36">nulla.Curabiturauctorsempernulla.Donecvariusorciegetrisus.</tspan><tspan
         x="0 10.728088 18.532421 22.434587 32.709335 40.513668 44.415836 52.220169 64.758743 76.465248 80.367409 89.018173 95.261635 102.27119 110.07552 117.09943 124.90376 135.88147 142.12494 149.92926 158.58003 165.60393 171.8474 178.09085 185.89519 197.60168 203.1422 210.16609 222.70467 228.94814 232.8503 239.09377 242.99594 247.28831 253.53178 261.33612 269.14044 277.7912 283.33173 290.35562 297.37952 301.28168 306.74472 312.20773 316.09555 326.3703 333.78442 341.58878 345.49094 351.03143 359.68219 367.48651 371.38867 378.4126 390.11908 400.41965 411.14774 418.95209 422.85425"
         y="186.30099"
         id="tspan38">Duisnibhmi,congueeu,accumsaneleifend,sagittisquis,diam.Duis</tspan><tspan
         x="0 6.2434664 13.267365 19.510832 29.650726 36.674625 42.137657 48.381126 56.974499 62.514999 66.417168 76.55706 83.580963 95.28746 101.53093 111.67082 118.69472 124.15775 130.40121 138.9946 146.79892 150.7011 157.72499 165.52933 169.41714 174.972 180.5125 184.41466 200.79802 206.26106 214.06538 219.52843 224.99146 232.79579 244.50229"
         y="203.23801"
         id="tspan40">egetorcisitametorcidignissimrutrum.</tspan><tspan
         x="21.070999 31.60111 38.625011 55.754372 63.558704 71.363037 80.673721 84.57589 88.478058 95.501953 103.30629 107.20845 114.23235 123.74388 128.03627 133.4993 137.40147 145.2058 152.22971 156.13187 160.03403 163.9362 176.38297 183.40686 192.90405 199.14751 206.95184 210.854 216.39452 228.10101 235.51225 248.73946 254.27995 261.69119 269.49554 276.51944 280.4216 286.66507 292.20557 301.7171 307.2576 314.28149 318.18369 322.08585 325.98801 332.23148 336.13364 341.59668 349.401 357.20532 361.10751 374.32034 381.34711 387.59058 391.49277 401.00427 411.1499 415.05209 420.59259 424.49475"
         y="220.174"
         id="tspan42">Namduiligula,fringillaa,euismodsodales,sollicitudinvel,wisi.</tspan><tspan
         x="0 12.87141 19.895309 25.358343 33.162678 41.999935 49.023834 56.828167 63.071632 68.534668 75.558563 85.971039 89.873207 96.897102 102.36014 108.6036 125.24519 133.04953 140.07343 152.82719 157.11958 164.90958 170.46442 175.9131 182.937 193.8688 204.39893 211.42282 228.06441 231.96658 238.99048 245.23395 253.03827 263.52823 267.43039 271.33255 279.52423 285.7677 291.23074 298.25464 307.1636 314.96796 320.431 326.67444 332.13748 336.03964 343.84399 360.48557 367.50946 372.9725 381.8815 385.78366 392.80756 400.99924 408.02313 413.48618 418.94922 422.85138"
         y="237.11099"
         id="tspan44">Morbiauctorloremnonjusto.Namlacuslibero,pretiumat,lobortis</tspan><tspan
         x="0 7.4141164 11.316282 16.779316 23.803215 30.04668 39.988598 47.792931 51.695099 57.158131 62.621162 66.50898 72.752449 76.654617 82.898079 94.205757 100.44923 105.91225 115.85417 121.31721 127.56067 131.46284 135.36501 143.16934 148.70984 162.09485 172.82294 179.84683 187.65117 193.89464 205.90527 212.92917 216.83133 220.73351 228.14761 235.95195 242.19542 247.65845 257.60037 263.06339 270.08731 275.55032 281.01337 288.03726 299.25311 304.79364 311.03708 324.60861 331.63251 337.87598 344.11942 351.92377 363.63025 369.17078 376.19467 389.76617 397.5705 401.47266 409.66434 415.90781 423.71216"
         y="254.047"
         id="tspan46">vitae,ultricieset,tellus.Donecaliquet,tortorsedaccumsanbiben-</tspan><tspan
         x="0 7.8043327 15.608665 27.315165 36.324577 42.568043 48.031078 55.054977 65.539177 69.441345 73.343513 80.367409 88.171745 92.073914 104.10464 111.12853 115.0307 118.93287 126.34698 134.15132 140.39478 150.87898 162.58548 169.60939 176.63329 184.43762 191.46152 200.47093 207.88504 211.78722 217.25024 224.27414 235.53879 242.56268 248.02571 255.83005 262.85394 268.31699 279.5816 286.99286 294.79718 298.69937 310.74442 322.45093 328.6944 334.15744 341.96176 352.52344 364.56851 376.27499 380.17715 391.32416 404.19559 411.21948 416.6825 424.48685"
         y="270.98401"
         id="tspan48">dum,eratligulaaliquetmagna,vitaeornareodiometusami.Morbi</tspan><tspan
         x="0 7.0238996 18.216805 25.240704 30.703737 36.947205 45.798809 52.042274 62.454746 70.259079 74.161247 79.701752 88.553352 96.357689 102.60115 110.40549 118.20982 123.67285 129.91632 135.37935 139.28152 149.69398 161.40048 168.42439 172.32655 176.22871 180.13089 185.67139 196.61754 204.42188 212.22621 217.76671 225.95839 232.20186 240.0062 247.81052 251.71269 257.2532 262.7937 273.9866 281.79092 292.2034 303.90991 310.93381 316.4743 322.0148 329.0387 339.98486 350.13049 355.59351 362.61743 373.10736 380.91168 387.15515 398.34805 405.37198 412.78894 418.25198 424.49545"
         y="287.92001"
         id="tspan50">acorcietnislhendreritmollis.Suspendisseutmassa.Crasnecante.</tspan><tspan
         x="0 9.1700907 15.413557 19.315723 23.21789 29.461357 36.878342 42.32703 48.570496 54.110996 61.525112 69.329445 79.762001 90.974991 98.391975 106.19631 110.09848 114.00064 121.02454 131.00949 141.15514 148.95946 164.85506 170.39555 177.80681 184.05026 187.95244 191.8546 201.5842 209.38853 216.41243 221.87546 229.28671 236.70082 244.50516 254.93771 263.12939 269.37286 277.17719 284.20108 289.66412 293.56628 301.37064 309.17496 318.90454 325.14801 334.80014 346.50665 353.53055 360.55444 368.35876 372.26093 381.99054 389.79486 393.69702 403.42664 411.23096 418.25485 423.7179"
         y="304.85699"
         id="tspan52">Pellentesqueanulla.Cumsociisnatoquepenatibusetmagnisdispar-</tspan><tspan
         x="0 5.4630327 13.267365 18.730398 22.632565 28.876032 36.293018 45.356945 57.063446 64.087341 71.504333 76.967361 83.19648 88.751335 96.469589 104.27392 111.29782 116.83833 123.08179 129.32526 134.78828 142.59262 151.65656 157.11958 161.02174 168.82608 172.72824 178.97171 186.77605 190.67821 198.48254 207.62395 218.9431 226.73308 232.28793 242.07204 252.60216 256.5043 260.40649 267.82059 275.62494 282.64883 297.95624 303.41925 307.32144 315.12576 321.36923 325.27139 333.07571 340.88007 348.28268 357.34662 365.15097 370.61398 378.41833 385.44223 395.22632 405.75644 413.56079 417.46295 421.36511"
         y="321.793"
         id="tspan54">turientmontes,nasceturridiculusmus.Aliquamtincidunturna.Nulla</tspan><tspan
         x="0 7.8043327 11.706499 15.608665 22.632565 34.339066 40.582531 47.60643 53.069462 61.261143 67.504608 77.644501 84.671272 90.914742 96.455238 101.91827 105.82044 113.62477 121.42911 125.33128 133.1356 149.51897 154.98199 162.78633 168.24936 176.0537 179.95586 185.49637 195.63913 204.80922 211.05269 214.95485 218.85703 225.10048 232.51747 237.9805 244.22397 249.76447 257.17859 264.98291 275.90326 282.14673 289.95105 295.41409 300.95459 308.75891 318.99063 322.89279 330.69711 336.94058 342.40363 350.20795 360.42532 372.13181 379.15573 386.96005 392.4231 396.32526 401.86575"
         y="338.73001"
         id="tspan56">ullamcorpervestibulumturpis.Pellentesquecursusluctusmauris.</tspan><tspan
         x="21.070999 31.60111 38.625011 55.754372 63.558704 71.363037 80.673721 84.57589 88.478058 95.501953 103.30629 107.20845 114.23235 123.74388 128.03627 133.4993 137.40147 145.2058 152.22971 156.13187 160.03403 163.9362 176.38297 183.40686 192.90405 199.14751 206.95184 210.854 216.39452 228.10101 235.51225 248.73946 254.27995 261.69119 269.49554 276.51944 280.4216 286.66507 292.20557 301.7171 307.2576 314.28149 318.18369 322.08585 325.98801 332.23148 336.13364 341.59668 349.401 357.20532 361.10751 374.32034 381.34711 387.59058 391.49277 401.00427 411.1499 415.05209 420.59259 424.49475"
         y="355.66599"
         id="tspan58">Namduiligula,fringillaa,euismodsodales,sollicitudinvel,wisi.</tspan><tspan
         x="0 12.87141 19.895309 25.358343 33.162678 41.999935 49.023834 56.828167 63.071632 68.534668 75.558563 85.971039 89.873207 96.897102 102.36014 108.6036 125.24519 133.04953 140.07343 152.82719 157.11958 164.90958 170.46442 175.9131 182.937 193.8688 204.39893 211.42282 228.06441 231.96658 238.99048 245.23395 253.03827 263.52823 267.43039 271.33255 279.52423 285.7677 291.23074 298.25464 307.1636 314.96796 320.431 326.67444 332.13748 336.03964 343.84399 360.48557 367.50946 372.9725 381.8815 385.78366 392.80756 400.99924 408.02313 413.48618 418.94922 422.85138"
         y="372.603"
         id="tspan60">Morbiauctorloremnonjusto.Namlacuslibero,pretiumat,lobortis</tspan><tspan
         x="0 7.4141164 11.316282 16.779316 23.803215 30.04668 39.988598 47.792931 51.695099 57.158131 62.621162 66.50898 72.752449 76.654617 82.898079 94.205757 100.44923 105.91225 115.85417 121.31721 127.56067 131.46284 135.36501 143.16934 148.70984 162.09485 172.82294 179.84683 187.65117 193.89464 205.90527 212.92917 216.83133 220.73351 228.14761 235.95195 242.19542 247.65845 257.60037 263.06339 270.08731 275.55032 281.01337 288.03726 299.25311 304.79364 311.03708 324.60861 331.63251 337.87598 344.11942 351.92377 363.63025 369.17078 376.19467 389.76617 397.5705 401.47266 409.66434 415.90781 423.71216"
         y="389.539"
         id="tspan62">vitae,ultricieset,tellus.Donecaliquet,tortorsedaccumsanbiben-</tspan><tspan
         x="0 7.8043327 15.608665 27.315165 36.324577 42.568043 48.031078 55.054977 65.539177 69.441345 73.343513 80.367409 88.171745 92.073914 104.10464 111.12853 115.0307 118.93287 126.34698 134.15132 140.39478 150.87898 162.58548 169.60939 176.63329 184.43762 191.46152 200.47093 207.88504 211.78722 217.25024 224.27414 235.53879 242.56268 248.02571 255.83005 262.85394 268.31699 279.5816 286.99286 294.79718 298.69937 310.74442 322.45093 328.6944 334.15744 341.96176 352.52344 364.56851 376.27499 380.17715 391.32416 404.19559 411.21948 416.6825 424.48685"
         y="406.47601"
         id="tspan64">dum,eratligulaaliquetmagna,vitaeornareodiometusami.Morbi</tspan><tspan
         x="0 7.0238996 18.216805 25.240704 30.703737 36.947205 45.798809 52.042274 62.454746 70.259079 74.161247 79.701752 88.553352 96.357689 102.60115 110.40549 118.20982 123.67285 129.91632 135.37935 139.28152 149.69398 161.40048 168.42439 172.32655 176.22871 180.13089 185.67139 196.61754 204.42188 212.22621 217.76671 225.95839 232.20186 240.0062 247.81052 251.71269 257.2532 262.7937 273.9866 281.79092 292.2034 303.90991 310.93381 316.4743 322.0148 329.0387 339.98486 350.13049 355.59351 362.61743 373.10736 380.91168 387.15515 398.34805 405.37198 412.78894 418.25198 424.49545"
         y="423.41199"
         id="tspan66">acorcietnislhendreritmollis.Suspendisseutmassa.Crasnecante.</tspan><tspan
         x="0 9.1700907 15.413557 19.315723 23.21789 29.461357 36.878342 42.32703 48.570496 54.110996 61.525112 69.329445 79.762001 90.974991 98.391975 106.19631 110.09848 114.00064 121.02454 131.00949 141.15514 148.95946 164.85506 170.39555 177.80681 184.05026 187.95244 191.8546 201.5842 209.38853 216.41243 221.87546 229.28671 236.70082 244.50516 254.93771 263.12939 269.37286 277.17719 284.20108 289.66412 293.56628 301.37064 309.17496 318.90454 325.14801 334.80014 346.50665 353.53055 360.55444 368.35876 372.26093 381.99054 389.79486 393.69702 403.42664 411.23096 418.25485 423.7179"
         y="440.349"
         id="tspan68">Pellentesqueanulla.Cumsociisnatoquepenatibusetmagnisdispar-</tspan><tspan
         x="0 5.4630327 13.267365 18.730398 22.632565 28.876032 36.293018 45.356945 57.063446 64.087341 71.504333 76.967361 83.19648 88.751335 96.469589 104.27392 111.29782 116.83833 123.08179 129.32526 134.78828 142.59262 151.65656 157.11958 161.02174 168.82608 172.72824 178.97171 186.77605 190.67821 198.48254 207.62395 218.9431 226.73308 232.28793 242.07204 252.60216 256.5043 260.40649 267.82059 275.62494 282.64883 297.95624 303.41925 307.32144 315.12576 321.36923 325.27139 333.07571 340.88007 348.28268 357.34662 365.15097 370.61398 378.41833 385.44223 395.22632 405.75644 413.56079 417.46295 421.36511"
         y="457.285"
         id="tspan70">turientmontes,nasceturridiculusmus.Aliquamtincidunturna.Nulla</tspan><tspan
         x="0 7.8043327 11.706499 15.608665 22.632565 34.339066 40.582531 47.60643 53.069462 61.261143 67.504608 77.644501 84.671272 90.914742 96.455238 101.91827 105.82044 113.62477 121.42911 125.33128 133.1356 149.51897 154.98199 162.78633 168.24936 176.0537 179.95586 185.49637 195.63913 204.80922 211.05269 214.95485 218.85703 225.10048 232.51747 237.9805 244.22397 249.76447 257.17859 264.98291 275.90326 282.14673 289.95105 295.41409 300.95459 308.75891 318.99063 322.89279 330.69711 336.94058 342.40363 350.20795 360.42532 372.13181 379.15573 386.96005 392.4231 396.32526 401.86575"
         y="474.22198"
         id="tspan72">ullamcorpervestibulumturpis.Pellentesquecursusluctusmauris.</tspan></text></g></svg>
