<?xml version="1.0" encoding="UTF-8" standalone="no"?>
<svg
   xmlns:dc="http://purl.org/dc/elements/1.1/"
   xmlns:cc="http://creativecommons.org/ns#"
   xmlns:rdf="http://www.w3.org/1999/02/22-rdf-syntax-ns#"
   xmlns:svg="http://www.w3.org/2000/svg"
   xmlns="http://www.w3.org/2000/svg"
   version="1.1"
   id="svg2"
   xml:space="preserve"
   width="793.70135"
   height="1122.52"
   viewBox="0 0 793.70135 1122.52"><metadata
     id="metadata8"><rdf:RDF><cc:Work
         rdf:about=""><dc:format>image/svg+xml</dc:format><dc:type
           rdf:resource="http://purl.org/dc/dcmitype/StillImage" /></cc:Work></rdf:RDF></metadata><defs
     id="defs6" /><g
     id="g10"
     transform="matrix(1.3333333,0,0,-1.3333333,0,1122.52)"><text
       transform="matrix(1,0,0,-1,110.854,704.136)"
       style="font-variant:normal;font-weight:normal;font-size:17.2154px;font-family:CMBX12;-inkscape-font-specification:CMBX12;writing-mode:lr-tb;fill:#000000;fill-opacity:1;fill-rule:nonzero;stroke:none"
       id="text14"><tspan
         x="0 29.050987 41.225719 46.60553 54.516006 62.1562 76.143715 86.903336 95.740005 104.3477 111.87944 117.25925 126.94292"
         y="0"
         id="tspan12">1FirstSection</tspan></text><text
       transform="matrix(1,0,0,-1,110.854,674.365)"
       style="font-variant:normal;font-weight:normal;font-size:14.3462px;font-family:CMBX12;-inkscape-font-specification:CMBX12;writing-mode:lr-tb;fill:#000000;fill-opacity:1;fill-rule:nonzero;stroke:none"
       id="text18"><tspan
         x="0 8.0697374 12.552925 36.762138 42.773197 51.294838 57.571301 64.163376 72.677849 81.644226 90.610596 97.783699 104.06017 108.54335 116.61308"
         y="0"
         id="tspan16">1.1Introduction</tspan></text><text
       transform="matrix(1,0,0,-1,110.854,652.198)"
       style="font-variant:normal;font-weight:normal;font-size:11.9552px;font-family:CMR12;-inkscape-font-specification:CMR12;writing-mode:lr-tb;fill:#000000;fill-opacity:1;fill-rule:nonzero;stroke:none"
       id="text28"><tspan
         x="0 8.4547176 14.958346 18.210161 26.724653 29.976469 38.502918 43.055458 49.559086 58.659386 65.16301 69.715553 74.332649 82.782585 87.399689 92.602585 97.805489 102.35803 105.60985 111.46311 117.96674"
         y="0"
         id="tspan20">Thisisthefrstsection.</tspan><tspan
         x="17.559 24.873192 30.726458 35.278999 40.481899 54.947693 58.199509 64.703133 69.320236 75.82386 90.301613 96.805237 102.65851 105.91032 111.75163 121.02647 125.64357 128.89539 138.15828 144.01154 153.76698 158.96989 163.52243 171.68784 176.89073 182.744 189.24762 193.86473 199.06763 204.27054 208.82307 214.02597 218.57852 225.08214 230.28505 239.55989 245.41316 251.91678 255.16859 261.67224 264.92404 269.54114 274.74405 277.98392 284.48752 295.06311 300.26599 303.51782 306.76962 311.32217 322.21335 330.17792 334.73047 337.98227 343.83554 358.30133 361.55313 367.4064 374.23282 380.08609 384.63864"
         y="14.446"
         id="tspan22">Loremipsumdolorsitamet,consectetueradipiscingelit.Etiamlobor-</tspan><tspan
         x="0 4.5525403 7.8043547 12.421453 15.998448 21.851715 27.054617 30.306433 33.558247 36.810062 41.427158 44.678974 55.130211 59.747307 64.950211 74.70565 88.956253 97.731369 104.235 107.48681 110.73862 116.5919 132.18147 138.6851 143.888 154.92505 164.66853 173.75449 178.95738 189.34407 195.8477 201.0506 207.22905 213.73268 224.76971 231.27335 237.77698 243.63023 248.18279 253.38568 257.93823 262.49075 274.17816 278.79526 284.64853 287.90033 291.15216 294.40396 299.60687 302.8587 307.41122 313.91486 320.41849 323.67029 330.17392 344.42453 352.3891 356.94162 362.79489 367.9978 372.6149 377.81778 383.98666"
         y="28.892"
         id="tspan24">tisfacilisissem.Nullamnecmietnequepharetrasollicitudin.Praesent</tspan><tspan
         x="0 3.2518144 13.007257 19.833677 25.036579 29.589121 36.092751 39.344563 44.547466 49.100006 58.85545 66.004662 72.508286 77.711189 86.823448 92.676712 98.845596 103.39813 108.60104 117.06532 126.00542 131.85869 138.3623 143.55325 152.66551 159.16914 162.42096 165.67278 171.52603 181.28148 186.48439 192.33765 196.89018 203.71661 208.91951 213.47205 220.62126 224.19826 229.40115 232.65297 235.90479 244.43124 250.93486 256.77618 267.18915 271.80624 277.9823 284.48593 290.3392 293.59103 298.79391 303.41101 306.66284 309.91464"
         y="43.338001"
         id="tspan26">imperdietminecante.Donecullamcorper,felisnonsodales...</tspan></text><text
       transform="matrix(1,0,0,-1,110.854,574.199)"
       style="font-variant:normal;font-weight:normal;font-size:14.3462px;font-family:CMBX12;-inkscape-font-specification:CMBX12;writing-mode:lr-tb;fill:#000000;fill-opacity:1;fill-rule:nonzero;stroke:none"
       id="text32"><tspan
         x="0 8.0697374 12.552925 36.762138 45.728512 53.092419 60.265518 68.335251 77.301628 91.647827 100.6142 109.58058 118.54695 124.9138 132.27771 139.45081 145.72726 150.21045 158.2802"
         y="0"
         id="tspan30">1.2SecondSubsection</tspan></text><text
       transform="matrix(1,0,0,-1,110.854,552.032)"
       style="font-variant:normal;font-weight:normal;font-size:11.9552px;font-family:CMR12;-inkscape-font-specification:CMR12;writing-mode:lr-tb;fill:#000000;fill-opacity:1;fill-rule:nonzero;stroke:none"
       id="text40"><tspan
         x="0 7.3141913 13.167458 17.719997 22.922901 36.659424 39.91124 46.414867 51.031967 57.535595 71.272118 77.775749 83.629013 86.880829 92.722137 101.25576 105.87286 109.12467 117.65829 123.51156 133.267 138.46991 143.02245 150.27925 155.48216 161.33542 167.8271 172.45615 177.64709 182.85001 187.40254 192.60544 197.15799 203.66162 208.86452 217.39813 223.2514 229.75504 233.00685 239.51048 242.7623 247.37939 252.58229 255.83411 262.33774 272.17209 277.375 280.6268 283.8786 288.43115 297.11063 305.0752 309.62772 312.87955 318.73282 332.46933 335.72113 341.5744 348.40082 354.25409 358.80664 363.35916 366.61099 375.20917 378.78616 384.63943"
         y="0"
         id="tspan34">Loremipsumdolorsitamet,consectetueradipiscingelit.Etiamlobortisfa-</tspan><tspan
         x="0 5.2029033 8.4547176 11.706532 14.958346 19.575445 22.827259 27.444357 32.061455 37.264359 47.019802 55.376488 64.151604 70.655235 73.907043 77.158859 83.012123 96.389992 102.89362 108.09653 116.92186 126.6773 133.55154 138.75444 146.92941 153.43303 158.63594 164.81439 171.31801 180.14334 186.64697 193.1506 199.00388 203.55641 208.75931 213.31186 217.8644 227.34009 231.95718 237.81044 241.06226 244.31407 247.56589 252.7688 256.0206 260.57315 267.07678 273.58041 276.83221 283.33585 291.69254 299.65707 304.20963 310.0629 315.26581 319.8829 325.08578 331.26663 339.44159 342.69342 352.44885 359.27527 364.47818 369.03073 375.53436 378.78616 383.98907"
         y="14.446"
         id="tspan36">cilisissem.Nullamnecmietnequepharetrasollicitudin.Praesentimperdiet</tspan><tspan
         x="0 9.7554436 16.904654 23.408281 28.611185 33.814087 39.667355 45.84819 50.400734 55.603634 58.85545 62.107265"
         y="28.892"
         id="tspan38">minecante...</tspan></text><text
       transform="matrix(1,0,0,-1,110.854,491.965)"
       style="font-variant:normal;font-weight:normal;font-size:11.9552px;font-family:CMBX12;-inkscape-font-specification:CMBX12;writing-mode:lr-tb;fill:#000000;fill-opacity:1;fill-rule:nonzero;stroke:none"
       id="text44"><tspan
         x="0 6.7248001 10.4608 17.1856 20.9216 41.096001 49.550716 53.286716 58.780132 64.085846 73.799446 81.271446 88.743446 96.215446 101.52116 108.99316 116.46516 121.77088 127.90749 133.88509 139.11549 142.85149 149.57629"
         y="0"
         id="tspan42">1.2.1FirstSubsubsection</tspan></text><text
       transform="matrix(1,0,0,-1,110.854,469.798)"
       style="font-variant:normal;font-weight:normal;font-size:11.9552px;font-family:CMR12;-inkscape-font-specification:CMR12;writing-mode:lr-tb;fill:#000000;fill-opacity:1;fill-rule:nonzero;stroke:none"
       id="text48"><tspan
         x="0 7.9645543 12.517095 18.370359 23.573263 28.190361 33.393265 39.574104 48.02404 51.275852 61.031296 67.857712 73.060616 77.613159 84.116791 87.368599 92.571503 97.124046 106.87949 114.02869 120.53233 125.73523 134.84749 140.70074 146.88159 151.42216 156.62508 165.08936 174.02945 179.88272 186.38635 191.58925 200.68954 207.19318 210.44499 213.69681 219.55008 229.30551 234.50842 240.36169 244.91423 251.74065 256.94354 261.49609 268.64529 272.22229 277.4252 280.677 283.92883 292.45526 298.95889 304.81216 315.2132 319.83029 326.00635 332.50998 338.36325 341.61505 346.81796 351.43506 354.68686 357.93869"
         y="0"
         id="tspan46">Praesentimperdietminecante.Donecullamcorper,felisnonsodales...</tspan></text><text
       transform="matrix(1,0,0,-1,110.854,435.137)"
       style="font-variant:normal;font-weight:normal;font-size:14.3462px;font-family:CMBX12;-inkscape-font-specification:CMBX12;writing-mode:lr-tb;fill:#000000;fill-opacity:1;fill-rule:nonzero;stroke:none"
       id="text52"><tspan
         x="0 12.403725 21.3701 29.891743 38.858116 51.862949 61.274055 68.637962 75.230042 82.593941 96.94014 105.90652 114.87289 123.83926 130.20612 137.57002 144.74312 151.01958 155.50276 163.57251"
         y="0"
         id="tspan50">UnnumberedSubsection</tspan></text><text
       transform="matrix(1,0,0,-1,110.854,412.97)"
       style="font-variant:normal;font-weight:normal;font-size:11.9552px;font-family:CMR12;-inkscape-font-specification:CMR12;writing-mode:lr-tb;fill:#000000;fill-opacity:1;fill-rule:nonzero;stroke:none"
       id="text60"><tspan
         x="0 7.3141913 13.167458 17.719997 22.922901 38.18969 41.441505 47.945133 52.562233 59.065861 74.344604 80.848236 86.7015 89.953316 95.80658 105.87047 110.48756 113.73938 123.81522 129.66849 139.42393 144.62683 149.17938 158.34901 163.55193 169.40518 175.90881 180.52591 185.72882 190.93172 195.48425 200.68716 205.2397 211.74333 216.94623 227.02208 232.87534 239.37897 242.63078 249.13441 252.38623 257.00333 262.20624 265.45804 271.96167 283.32629 288.52917 291.78101 295.03281 299.58536 312.89148 320.85605 325.4086 328.6604 334.51367 349.78046 353.03229 358.88553 365.71194 371.56522 376.11777 380.67032 383.92212"
         y="0"
         id="tspan54">Loremipsumdolorsitamet,consectetueradipiscingelit.Etiamlobortis</tspan><tspan
         x="0 3.5769958 9.4302616 14.633164 17.884979 21.136793 24.388609 29.005707 32.257519 36.874619 41.491718 46.694622"
         y="14.446"
         id="tspan56">facilisissem</tspan><tspan
         x="191.345"
         y="273.21701"
         id="tspan58">1</tspan></text></g></svg>
