<?xml version="1.0" encoding="UTF-8" standalone="no"?>
<svg
   xmlns:dc="http://purl.org/dc/elements/1.1/"
   xmlns:cc="http://creativecommons.org/ns#"
   xmlns:rdf="http://www.w3.org/1999/02/22-rdf-syntax-ns#"
   xmlns:svg="http://www.w3.org/2000/svg"
   xmlns="http://www.w3.org/2000/svg"
   version="1.1"
   id="svg2"
   xml:space="preserve"
   width="793.70135"
   height="1122.52"
   viewBox="0 0 793.70135 1122.52"><metadata
     id="metadata8"><rdf:RDF><cc:Work
         rdf:about=""><dc:format>image/svg+xml</dc:format><dc:type
           rdf:resource="http://purl.org/dc/dcmitype/StillImage" /></cc:Work></rdf:RDF></metadata><defs
     id="defs6" /><g
     id="g10"
     transform="matrix(1.3333333,0,0,-1.3333333,0,1122.52)"><text
       transform="matrix(1,0,0,-1,110.854,704.136)"
       style="font-variant:normal;font-weight:normal;font-size:17.2154px;font-family:CMBX12;-inkscape-font-specification:CMBX12;writing-mode:lr-tb;fill:#000000;fill-opacity:1;fill-rule:nonzero;stroke:none"
       id="text14"><tspan
         x="0 7.2132525 17.972878 28.732502 39.492126 49.175789 54.555603"
         y="0"
         id="tspan12">Innhold</tspan></text><text
       transform="matrix(1,0,0,-1,110.854,677.852)"
       style="font-variant:normal;font-weight:normal;font-size:11.9552px;font-family:CMBX12;-inkscape-font-specification:CMBX12;writing-mode:lr-tb;fill:#000000;fill-opacity:1;fill-rule:nonzero;stroke:none"
       id="text18"><tspan
         x="0 17.556211 26.010929 29.746929 35.240341 40.546062 50.259663 57.731659 63.868263 69.845863 75.076263 78.812263 85.537064 381.82278"
         y="0"
         id="tspan16">1FirstSection1</tspan></text><text
       transform="matrix(1,0,0,-1,128.413,663.406)"
       style="font-variant:normal;font-weight:normal;font-size:11.9552px;font-family:CMR12;-inkscape-font-specification:CMR12;writing-mode:lr-tb;fill:#000000;fill-opacity:1;fill-rule:nonzero;stroke:none"
       id="text26"><tspan
         x="0 5.8532658 9.1050806 26.925501 31.148079 37.328915 41.881458 46.433998 52.610054 59.113682 65.61731 70.820213 75.372757 78.624565 84.477837 96.181976 105.41139 114.6408 123.87022 133.09964 142.32904 151.55846 160.78787 170.01729 179.2467 188.47612 197.70554 206.93495 216.16437 225.39378 234.62318 243.84065 253.07007 262.29947 271.5289 280.7583 289.98773 299.21713 308.44656 317.67596 326.90536 336.1348 345.3642 365.12616"
         y="0"
         id="tspan20">1.1Introduction............................1</tspan><tspan
         x="0 5.8532658 9.1050806 26.925501 33.429131 38.632034 43.834938 49.688202 56.19183 66.592857 73.096481 79.600113 86.103745 90.72084 95.923744 101.12665 105.67918 108.931 114.78426 133.09964 142.32904 151.55846 160.78787 170.01729 179.2467 188.47612 197.70554 206.93495 216.16437 225.39378 234.62318 243.84065 253.07007 262.29947 271.5289 280.7583 289.98773 299.21713 308.44656 317.67596 326.90536 336.1348 345.3642 365.12616"
         y="14.446"
         id="tspan22">1.2SecondSubsection........................1</tspan><tspan
         x="26.924 32.777267 36.029079 41.882347 45.134159 64.377251 72.016624 75.26844 79.820976 84.43808 92.899963 99.403595 105.90723 112.41085 117.02795 123.53158 130.0352 134.65231 139.85521 145.05812 149.61066 152.86247 158.71573 170.0134 179.24281 188.47223 197.70164 206.93106 216.16048 225.38988 234.61929 243.84871 253.07812 262.30756 271.53696 280.76636 289.99579 299.22519 308.45462 317.68402 326.91345 336.14285 345.37228 365.13422"
         y="28.892"
         id="tspan24">1.2.1FirstSubsubsection....................1</tspan></text><text
       transform="matrix(1,0,0,-1,110.854,594.58)"
       style="font-variant:normal;font-weight:normal;font-size:17.2154px;font-family:CMBX12;-inkscape-font-specification:CMBX12;writing-mode:lr-tb;fill:#000000;fill-opacity:1;fill-rule:nonzero;stroke:none"
       id="text30"><tspan
         x="0 29.050987 41.225719 46.60553 54.516006 62.1562 76.143715 86.903336 95.740005 104.3477 111.87944 117.25925 126.94292"
         y="0"
         id="tspan28">1FirstSection</tspan></text><text
       transform="matrix(1,0,0,-1,110.854,564.809)"
       style="font-variant:normal;font-weight:normal;font-size:14.3462px;font-family:CMBX12;-inkscape-font-specification:CMBX12;writing-mode:lr-tb;fill:#000000;fill-opacity:1;fill-rule:nonzero;stroke:none"
       id="text34"><tspan
         x="0 8.0697374 12.552925 36.762138 42.773197 51.294838 57.571301 64.163376 72.677849 81.644226 90.610596 97.783699 104.06017 108.54335 116.61308"
         y="0"
         id="tspan32">1.1Introduction</tspan></text><text
       transform="matrix(1,0,0,-1,110.854,542.642)"
       style="font-variant:normal;font-weight:normal;font-size:11.9552px;font-family:CMR12;-inkscape-font-specification:CMR12;writing-mode:lr-tb;fill:#000000;fill-opacity:1;fill-rule:nonzero;stroke:none"
       id="text44"><tspan
         x="0 8.4547176 14.958346 18.210161 26.724653 29.976469 38.502918 43.055458 49.559086 58.659386 65.16301 69.715553 74.332649 82.782585 87.399689 92.602585 97.805489 102.35803 105.60985 111.46311 117.96674"
         y="0"
         id="tspan36">Thisisthefrstsection.</tspan><tspan
         x="17.559 24.873192 30.726458 35.278999 40.481899 53.919544 57.17136 63.674988 68.292084 74.795715 88.23336 94.736992 100.59026 103.84207 109.69534 117.93008 122.54717 125.79899 134.03374 139.88699 149.64244 154.84534 159.39789 166.33189 171.53481 177.38806 183.89169 188.50879 193.7117 198.9146 203.46715 208.67004 213.22258 219.71426 224.91716 233.1519 239.00517 245.5088 248.76062 255.26424 258.51605 263.13315 268.33606 271.58786 278.09149 287.62695 292.82986 296.0817 299.3335 303.88605 310.82007 318.78461 323.33716 326.58896 332.44223 345.87988 349.13168 354.98495 361.81137 367.66464 372.21719 376.76971 380.02155 384.63864"
         y="14.446"
         id="tspan38">Loremipsumdolorsitamet,consectetueradipiscingelit.Etiamlobortis-</tspan><tspan
         x="0 3.5769958 9.4302616 14.633164 17.884979 21.136793 24.388609 29.005707 32.257519 41.046982 45.664082 50.866985 60.622429 68.058563 76.833679 83.325356 86.577164 89.828979 95.682251 109.62201 116.12564 121.32854 130.70381 140.45926 147.88344 153.08633 161.81123 168.31487 173.51778 179.69621 186.19984 195.58707 202.0907 208.59433 214.4476 219.00014 224.20303 228.75558 233.29616 243.33376 247.95085 253.80411 257.05594 260.30774 263.55957 268.76245 272.01428 276.5668 283.07043 289.57407 292.8259 299.32953 306.75369 314.71826 319.27078 325.12405 330.32697 334.94406 340.14697 346.32779 355.0527 358.3045 368.05997 374.88638 380.08929 384.64182"
         y="28.892"
         id="tspan40">facilisissem.Nullamnecmietnequepharetrasollicitudin.Praesentimper-</tspan><tspan
         x="0 6.5036287 9.7554436 14.958346 19.510887 29.266329 36.415539 42.919167 48.12207 57.234325 63.087589 69.256477 73.809013 79.011917 86.17308 95.113182 100.96645 107.47008 112.67298 121.77328 128.2769 131.52872 134.78053 140.6338 150.38924 155.59215 161.44542 165.99796 172.82437 178.02727 182.57982 189.72902 193.30602 198.50893 201.76074 205.01256 213.539 220.04263 225.89589 236.29692 240.91402 247.09007 253.5937 259.44696 262.69879 267.90167 272.5188 275.7706 279.0224"
         y="43.338001"
         id="tspan42">dietminecante.Donecullamcorper,felisnonsodales...</tspan></text><text
       transform="matrix(1,0,0,-1,110.854,464.643)"
       style="font-variant:normal;font-weight:normal;font-size:14.3462px;font-family:CMBX12;-inkscape-font-specification:CMBX12;writing-mode:lr-tb;fill:#000000;fill-opacity:1;fill-rule:nonzero;stroke:none"
       id="text48"><tspan
         x="0 8.0697374 12.552925 36.762138 45.728512 53.092419 60.265518 68.335251 77.301628 91.647827 100.6142 109.58058 118.54695 124.9138 132.27771 139.45081 145.72726 150.21045 158.2802"
         y="0"
         id="tspan46">1.2SecondSubsection</tspan></text><text
       transform="matrix(1,0,0,-1,110.854,442.476)"
       style="font-variant:normal;font-weight:normal;font-size:11.9552px;font-family:CMR12;-inkscape-font-specification:CMR12;writing-mode:lr-tb;fill:#000000;fill-opacity:1;fill-rule:nonzero;stroke:none"
       id="text56"><tspan
         x="0 7.3141913 13.167458 17.719997 22.922901 36.802887 40.054703 46.558331 51.17543 57.679058 71.559044 78.062675 83.915939 87.167755 93.021019 101.6981 106.3152 109.56702 118.25606 124.10932 133.85281 139.05571 143.60825 150.99657 156.19946 162.05273 168.55637 173.17346 178.37637 183.57927 188.13181 193.33472 197.87529 204.37892 209.58183 218.27087 224.12413 230.62776 233.87958 240.38321 243.63503 248.25212 253.45502 256.70685 263.19852 273.18826 278.39117 281.64301 284.89481 289.44736 296.8237 304.78827 309.34079 312.59262 318.44589 332.32587 335.57767 341.43094 348.25735 354.11063 358.66318 363.2157 366.46753 375.20917 378.78616 384.63943"
         y="0"
         id="tspan50">Loremipsumdolorsitamet,consectetueradipiscingelit.Etiamlobortisfa-</tspan><tspan
         x="0 5.2029033 8.4547176 11.706532 14.958346 19.575445 22.827259 27.444357 32.061455 37.264359 47.019802 54.228786 63.003902 69.50753 72.759346 76.011162 81.864426 95.565086 102.06872 107.27162 116.43169 126.18713 133.38417 138.58707 147.09679 153.6004 158.80331 164.98177 171.48538 180.64546 187.14909 193.65273 199.50598 204.05853 209.26143 213.81396 218.36652 228.16499 232.78209 238.63536 241.88718 245.13899 248.39079 253.5937 256.84552 261.39807 267.90167 274.4053 277.65714 284.16077 291.36975 299.33429 303.88684 309.74011 314.94299 319.56012 324.763 330.93188 339.44159 342.69342 352.44885 359.27527 364.47818 369.03073 375.53436 378.78616 383.98907"
         y="14.446"
         id="tspan52">cilisissem.Nullamnecmietnequepharetrasollicitudin.Praesentimperdiet</tspan><tspan
         x="0 9.7554436 16.904654 23.408281 28.611185 33.814087 39.667355 45.84819 50.400734 55.603634 58.85545 62.107265"
         y="28.892"
         id="tspan54">minecante...</tspan></text><text
       transform="matrix(1,0,0,-1,110.854,382.409)"
       style="font-variant:normal;font-weight:normal;font-size:11.9552px;font-family:CMBX12;-inkscape-font-specification:CMBX12;writing-mode:lr-tb;fill:#000000;fill-opacity:1;fill-rule:nonzero;stroke:none"
       id="text60"><tspan
         x="0 6.7248001 10.4608 17.1856 20.9216 41.096001 49.550716 53.286716 58.780132 64.085846 73.799446 81.271446 88.743446 96.215446 101.52116 108.99316 116.46516 121.77088 127.90749 133.88509 139.11549 142.85149 149.57629"
         y="0"
         id="tspan58">1.2.1FirstSubsubsection</tspan></text><text
       transform="matrix(1,0,0,-1,110.854,360.243)"
       style="font-variant:normal;font-weight:normal;font-size:11.9552px;font-family:CMR12;-inkscape-font-specification:CMR12;writing-mode:lr-tb;fill:#000000;fill-opacity:1;fill-rule:nonzero;stroke:none"
       id="text64"><tspan
         x="0 7.9645543 12.517095 18.370359 23.573263 28.190361 33.393265 39.574104 48.02404 51.275852 61.031296 67.857712 73.060616 77.613159 84.116791 87.368599 92.571503 97.124046 106.87949 114.02869 120.53233 125.73523 134.84749 140.70074 146.88159 151.42216 156.62508 163.78624 172.72633 178.57961 185.08324 190.28613 199.38643 205.89006 209.14188 212.39369 218.24696 228.0024 233.20531 239.05856 243.61111 250.43753 255.64043 260.19296 267.34219 270.91919 276.12207 279.3739 282.6257 291.15216 297.65579 303.50906 313.91006 318.52716 324.70325 331.20685 337.06012 340.31195 345.51483 350.13193 353.38376 356.63556"
         y="0"
         id="tspan62">Praesentimperdietminecante.Donecullamcorper,felisnonsodales...</tspan></text><text
       transform="matrix(1,0,0,-1,110.854,325.581)"
       style="font-variant:normal;font-weight:normal;font-size:14.3462px;font-family:CMBX12;-inkscape-font-specification:CMBX12;writing-mode:lr-tb;fill:#000000;fill-opacity:1;fill-rule:nonzero;stroke:none"
       id="text68"><tspan
         x="0 12.403725 21.3701 29.891743 38.858116 51.862949 61.274055 68.637962 75.230042 82.593941 96.94014 105.90652 114.87289 123.83926 130.20612 137.57002 144.74312 151.01958 155.50276 163.57251"
         y="0"
         id="tspan66">UnnumberedSubsection</tspan></text><text
       transform="matrix(1,0,0,-1,110.854,303.414)"
       style="font-variant:normal;font-weight:normal;font-size:11.9552px;font-family:CMR12;-inkscape-font-specification:CMR12;writing-mode:lr-tb;fill:#000000;fill-opacity:1;fill-rule:nonzero;stroke:none"
       id="text76"><tspan
         x="0 7.3141913 13.167458 17.719997 22.922901 36.802887 40.054703 46.558331 51.17543 57.679058 71.559044 78.062675 83.915939 87.167755 93.021019 101.6981 106.3152 109.56702 118.25606 124.10932 133.85281 139.05571 143.60825 150.99657 156.19946 162.05273 168.55637 173.17346 178.37637 183.57927 188.13181 193.33472 197.87529 204.37892 209.58183 218.27087 224.12413 230.62776 233.87958 240.38321 243.63503 248.25212 253.45502 256.70685 263.19852 273.18826 278.39117 281.64301 284.89481 289.44736 296.8237 304.78827 309.34079 312.59262 318.44589 332.32587 335.57767 341.43094 348.25735 354.11063 358.66318 363.2157 366.46753 375.20917 378.78616 384.63943"
         y="0"
         id="tspan70">Loremipsumdolorsitamet,consectetueradipiscingelit.Etiamlobortisfa-</tspan><tspan
         x="0 5.2029033 8.4547176 11.706532 14.958346 19.575445 22.827259 27.444357 32.061455 37.264359"
         y="14.446"
         id="tspan72">cilisissem</tspan><tspan
         x="191.345"
         y="163.661"
         id="tspan74">1</tspan></text></g></svg>
