<?xml version="1.0" encoding="UTF-8" standalone="no"?>
<svg
   xmlns:dc="http://purl.org/dc/elements/1.1/"
   xmlns:cc="http://creativecommons.org/ns#"
   xmlns:rdf="http://www.w3.org/1999/02/22-rdf-syntax-ns#"
   xmlns:svg="http://www.w3.org/2000/svg"
   xmlns="http://www.w3.org/2000/svg"
   version="1.1"
   id="svg2"
   xml:space="preserve"
   width="793.70135"
   height="1122.52"
   viewBox="0 0 793.70135 1122.52"><metadata
     id="metadata8"><rdf:RDF><cc:Work
         rdf:about=""><dc:format>image/svg+xml</dc:format><dc:type
           rdf:resource="http://purl.org/dc/dcmitype/StillImage" /></cc:Work></rdf:RDF></metadata><defs
     id="defs6" /><g
     id="g10"
     transform="matrix(1.3333333,0,0,-1.3333333,0,1122.52)"><text
       transform="matrix(1,0,0,-1,148.712,707.125)"
       style="font-variant:normal;font-weight:normal;font-size:9.9626px;font-family:CMR10;-inkscape-font-specification:CMR10;writing-mode:lr-tb;fill:#000000;fill-opacity:1;fill-rule:nonzero;stroke:none"
       id="text72"><tspan
         x="0 6.226625 11.207925 15.110275 19.537655 32.591648 35.349297 40.884518 44.813766 50.348988 63.402981 68.938202 73.919502 76.687111 81.668411 90.312958 94.24221 97.009819 105.63644 110.61774 118.91957 123.34695 127.22141 135.08987 139.51724 144.49855 150.03377 153.96301 158.3904 162.81778 166.69223 171.11961 174.99406 180.52928 184.95667 193.60121 198.58252 204.11774 206.88535 212.42056 215.18817 219.11743 223.5448 226.31241 231.84764 241.5811 246.00847 248.77608 251.5437 255.41815 266.88312 274.35507 282.98169 288.51691 294.05212 297.95447 303.48969 312.16113 316.5885 319.35611 322.12375 325.9982"
         y="0"
         id="tspan12">Loremipsumdolorsitamet,consectetueradipiscingelit.Utpuruselit,</tspan><tspan
         x="-14.944 -9.9646921 -5.537313 -1.6080637 2.2663915 5.0340018 10.569222 16.104443 18.872053 24.407274 37.142464 42.677685 46.552139 54.022099 59.55732 62.324928 67.306229 71.733612 76.160988 80.063339 85.04464 93.342491 98.323792 102.75117 110.22112 115.20242 120.73765 123.50526 129.04048 131.80809 135.73734 140.16472 142.93233 148.46754 157.8822 163.14046 165.90808 169.78253 174.76382 179.19121 186.66116 189.70573 194.13312 196.90073 199.66833 203.59758 214.1161 221.3111 226.84631 230.74866 235.72997 241.26518 244.03279 247.90724 253.44246 261.76822 267.30344 270.07104 274.49841 278.37286 283.90811 296.63333 301.61462 305.51697 310.22928 315.48755 318.25516 323.79037"
         y="11.955"
         id="tspan14">vestibulumut,placeratac,adipiscingvitae,felis.Curabiturdictumgravida</tspan><tspan
         x="-14.944 -6.6421652 -1.6608654 3.8743551 7.7767057 10.544316 14.473565 21.873785 29.345734 34.327034 46.016151 50.997452 54.899803 59.327183 68.249687 71.017296 73.784904 79.599083 84.026459 87.92881 92.91011 99.08493 104.62015 109.60145 114.85772 120.39294 128.69478 136.71765 145.3632 149.79057 154.77188 159.20923 163.08368 169.24854 173.67592 178.65721 184.19243 188.12169 192.54906 196.9864 200.85089 205.28824 209.16269 214.68796 219.12529 226.41493 229.18254 234.71776 240.88261 246.14088 251.6761 254.44371 259.97894 265.51416 269.38861 274.3699 278.24435 286.069 291.05029 297.21515 305.51697 310.49829 315.47958 321.0148 325.99609"
         y="23.91"
         id="tspan16">mauris.Namarculibero,nonummyeget,consectetuerid,vulputatea,magna.</tspan><tspan
         x="-14.944 -7.33357 -2.3522699 3.1829507 7.6103301 15.195854 20.175161 24.602541 30.137762 32.905373 37.332752 42.867973 45.635582 53.775024 58.756325 64.29155 69.27285 74.808067 82.383629 86.811005 95.504372 101.0396 105.46697 110.72523 116.26045 120.68784 127.82903 134.33061 138.758 141.5256 144.29321 148.7206 153.97687 157.85132 162.2787 166.20795 171.4662 177.00143 184.58696 190.12218 195.10347 200.63869 203.40631 207.28076 212.26205 217.51833 224.55093 232.85277 237.83406 241.7364 247.27164 253.18742 257.06189 260.96423 263.73184 267.6611 271.53555 274.30316 279.5614 285.09665 292.68216 296.61142 301.03879 306.57401 311.00137 315.42877 319.30322 324.83844"
         y="35.865002"
         id="tspan18">Donecvehiculaaugueeuneque.Pellentesquehabitantmorbitristiquesenectus</tspan><tspan
         x="-14.944 -10.516621 -2.1589954 3.3762252 7.8036046 11.67806 17.21328 25.615738 30.043116 38.400742 46.702576 51.683876 54.451485 58.878864 62.808117 68.343338 73.324638 78.859856 88.314362 91.358932 96.340233 104.64207 109.06945 117.48186 122.46317 131.36375 135.2382 140.77344 144.67578 150.211 152.97861 161.39104 165.81841 170.79971 175.2271 179.15634 183.03079 188.0121 191.94135 202.6093 211.742 216.72331 222.24857 226.15092 228.91853 237.33095 242.86617 251.21384 253.98145 258.40881 263.39014 274.05807 281.25305 285.15543 290.13672 298.54913 303.8074 306.57501 311.55432 315.98169 319.88403 323.78641"
         y="47.820999"
         id="tspan20">etnetusetmalesuadafamesacturpisegestas.Maurisutleo.Crasviverra</tspan><tspan
         x="-14.944 -6.6421652 -2.2147861 1.6596692 7.1948895 13.983405 17.885756 23.420977 28.402277 33.937496 38.364876 43.900097 50.688614 54.617863 59.045242 67.347076 74.388641 81.860588 87.395813 90.163422 92.93103 100.7716 105.19898 111.92274 114.69035 119.12769 123.55507 127.42953 132.96475 139.7433 144.73257 149.15994 153.0892 156.96365 159.73126 165.26648 170.8017 173.56932 179.10454 190.25568 195.79089 199.69324 205.22847 213.06903 216.1136 220.01595 222.78355 228.31879 233.30008 236.06769 238.8353 241.60291 249.44348 254.9787 257.74631 261.62076 265.5231 268.29071 272.71811 277.14548 281.07474 288.1163 294.89685 300.43207 305.41336 309.34262 313.76999 316.5376 319.30521 324.84042"
         y="59.776001"
         id="tspan22">metusrhoncussem.Nullaetlectusvestibulumurnafringillaultrices.Phasellus</tspan><tspan
         x="-14.944 -10.516621 -1.9527696 1.9216856 6.3490648 9.1166754 11.884286 17.419506 24.377386 28.306635 31.074245 37.977333 42.95863 51.260468 55.687843 62.590931 66.465385 71.446686 75.349037 79.223488 84.204788 91.125809 96.107109 100.00946 104.72177 109.98003 112.74764 118.2729 126.28283 131.81805 134.58566 139.56696 143.99434 148.42172 152.32407 157.30537 161.17982 168.28116 171.87866 177.13493 181.00938 185.43677 190.41806 194.84544 201.77643 205.70567 210.68697 216.2222 218.98981 223.41718 231.98103 236.40842 240.33766 244.21211 250.06813 252.83574 257.81705 262.24442 267.77963 270.54724 273.31485 280.27274 283.04034 288.56561 294.42163 299.95685 303.85919 308.28659 312.16104 314.92865 320.46387"
         y="71.731003"
         id="tspan24">eutellussitamettortorgravidaplacerat.Integersapienest,iaculisin,pretium</tspan><tspan
         x="-14.944 -9.6857395 -4.1505194 -1.3829088 2.5463405 9.6277571 14.886017 17.653627 22.632935 27.060314 30.962664 34.865013 43.950905 48.932205 53.359585 60.441002 65.697273 71.232491 76.767708 81.195091 90.767159 97.547699 101.45005 106.43135 110.85873 114.78798 119.21536 124.47163 132.46063 136.88802 141.86932 146.29669 154.28571 158.21495 162.64233 175.04877 180.03802 184.46541 191.33762 194.10522 198.53259 207.62845 213.16368 215.93129 219.80574 223.70808 226.47571 230.90308 235.33046 243.37427 248.90948 251.67709 257.48129 261.91864 267.44391 272.97913 278.51434 286.81619 296.38824 303.8602 308.28757 313.82278 318.25018 323.23148"
         y="83.685997"
         id="tspan26">quis,viverraac,nunc.Praesentegetsemvelleoultricesbibendum.Aenean</tspan><tspan
         x="-14.944 -11.899429 -6.9181294 -1.3829088 3.0444705 5.8120809 11.347301 16.882523 20.811771 29.148476 38.281189 43.262489 47.164841 52.700062 59.163795 64.69902 69.680313 72.447929 77.42923 85.037666 90.29393 95.829155 98.596764 101.36437 106.34567 112.90903 121.21087 126.19217 128.95978 133.38716 137.31641 142.85162 147.83293 153.36815 162.05554 166.48291 172.01814 178.5815 184.11671 189.64198 192.40959 197.66785 200.43546 205.97067 210.95198 218.56041 223.54172 227.41617 233.97954 242.28137 247.26266 250.03027 252.79788 255.56549 263.19086 268.17218 272.60953 279.17288 284.42914 289.96436 292.73196 295.49957 300.4809 308.8176 316.01257 321.54779 325.45013"
         y="95.640999"
         id="tspan28">faucibus.Morbidolornulla,malesuadaeu,pulvinarat,mollisac,nulla.Cur-</tspan><tspan
         x="-14.944 -9.9626999 -4.4274793 -1.6598692 2.214586 7.7498064 14.979666 19.960966 25.496185 29.923565 33.798019 38.77932 46.009178 49.938427 54.365807 62.667645 68.481819 72.909195 80.139053 85.395325 90.930542 93.698151 96.465767 101.44706 108.65799 116.26842 121.24973 126.78494 131.21233 138.96721 143.67754 148.65883 152.56117 155.3288 160.86401 168.12077 173.10207 177.00443 181.43179 187.52692 191.9543 196.93559 201.36298 208.56494 212.46729 215.23489 219.16415 224.69937 228.62862 235.83955 243.44998 248.9852 251.75281 259.00958 264.5448 267.31241 272.84763 281.71036 290.01218 292.77979 298.87491 303.30228 308.2836 313.81882 318.80011 324.33533"
         y="107.596"
         id="tspan30">abiturauctorsempernulla.Donecvariusorciegetrisus.Duisnibhmi,congue</tspan><tspan
         x="-14.944 -10.516621 -4.9814 0.6654017 5.6467018 10.074081 14.501461 20.03668 28.338516 32.267765 37.249065 45.56385 49.99123 52.758842 57.186222 59.953831 62.998402 67.425781 72.960999 78.496223 84.143021 88.072273 93.053574 98.034874 100.80248 104.67694 108.55139 111.319 118.01785 123.27612 128.81134 131.57895 135.50819 141.155 146.69022 149.45782 154.43913 162.74097 169.75264 177.36307 182.89828 185.66591 192.36476 196.79213 201.77344 206.20082 212.85483 217.83614 221.73848 226.16586 231.70308 235.63232 238.39993 245.04399 250.0253 258.32712 262.75452 269.39856 274.37985 278.28223 282.70959 288.25677 293.79199 296.5596 301.54089 307.06616 309.83377 313.76303 317.70224 320.46985"
         y="119.552"
         id="tspan32">eu,accumsaneleifend,sagittisquis,diam.Duisegetorcisitametorcidignissim</tspan><tspan
         x="-14.944 -11.04165 -5.5064292 -1.6319739 2.2703764 7.8055973 16.107431"
         y="131.507"
         id="tspan34">rutrum.</tspan><tspan
         x="0 7.4719501 12.45325 25.178478 30.713699 36.24892 43.439926 46.207535 48.975147 53.956444 59.491665 62.259277 67.240578 74.710533 77.755104 81.647491 84.4151 89.950325 94.931625 97.699234 100.46684 103.23445 112.63914 117.62045 125.09041 129.51779 135.05301 137.82062 141.74986 150.0517 155.31195 165.27057 169.19981 174.46007 179.99529 184.97659 187.7442 192.17159 196.10083 203.56082 207.49007 212.47137 215.23898 218.00659 220.7742 225.20158 227.96919 231.84364 237.37888 242.91409 245.6817 255.64032 260.61963 265.05698 267.82458 275.28458 282.47955 285.24716 289.17642 291.94403 302.45258 311.5853 316.56659 320.46893 326.00418"
         y="143.46201"
         id="tspan36">Namduiligula,fringillaa,euismodsodales,sollicitudinvel,wisi.Morbi</tspan><tspan
         x="-14.944 -9.9626999 -4.4274793 -9.9999997e-05 3.8743551 8.8556547 15.348282 18.115892 23.097193 26.999542 31.426922 42.319031 47.854252 52.835552 60.951088 63.995659 69.530876 73.460129 77.334579 82.31588 89.267784 96.739738 101.72103 112.61314 115.38075 120.36205 124.78944 130.32466 136.84418 139.61179 142.37939 148.19357 152.62096 156.5233 161.50461 167.00197 172.53719 176.43954 180.86691 184.74138 187.50899 193.0442 203.93631 208.91762 212.79207 218.29939 221.067 226.04831 231.85251 236.83382 240.73616 244.61063 247.37823 253.89775 259.15601 261.92361 265.7981 270.77939 275.20676 280.71408 286.2493 289.01691 292.89139 296.79373 299.55136 303.98871 306.75632 311.18372 317.69327 322.12064 325.99509"
         y="155.41701"
         id="tspan38">auctorloremnonjusto.Namlacuslibero,pretiumat,lobortisvitae,ultricieset,</tspan><tspan
         x="-14.944 -11.069545 -6.6421652 -3.8745551 -1.1069449 4.4282756 8.3575249 15.329352 22.939783 27.921083 33.456303 37.883682 44.971077 49.952377 52.719986 55.487598 60.745857 66.281075 70.708458 74.582909 80.140053 84.014503 88.995804 92.898155 96.772614 101.75391 108.31628 112.24553 116.6729 124.86814 129.84944 134.27682 138.70419 144.23943 152.54126 156.4705 161.4518 169.64703 175.18225 177.93991 183.75407 188.18146 193.71667 199.25191 204.78712 213.08896 218.64609 223.07347 226.97583 231.95712 238.49159 241.2592 244.02681 249.00812 254.54333 257.31094 264.95227 269.93356 272.70117 275.46878 280.72705 286.26227 290.68964 297.21414 305.52594 310.50723 315.48856 321.01379 325.99509"
         y="167.37199"
         id="tspan40">tellus.Donecaliquet,tortorsedaccumsanbibendum,eratligulaaliquetmagna,</tspan><tspan
         x="-14.944 -9.6857395 -6.9181294 -3.0436742 1.9376256 8.9353561 13.916656 17.819006 23.354227 28.335527 32.237877 39.225643 44.485897 50.021118 52.788727 60.340378 68.642212 73.069595 76.944046 82.479271 88.96891 96.520561 104.8224 107.59 114.53194 123.66466 128.64595 132.54831 138.08353 143.42149 148.40279 155.39056 160.37186 164.2742 168.70158 174.03955 178.46693 184.90176 190.437 193.20461 197.13385 202.47182 208.00703 212.43442 217.96964 223.50485 227.40721 231.83458 235.73694 238.50455 244.94936 253.25119 258.23248 261.00009 263.7677 266.53531 270.46457 277.40649 282.94171 288.47696 292.40619 298.21042 302.64774 308.173 313.70822 316.47583 320.40509 324.3443"
         y="179.327"
         id="tspan42">vitaeornareodiometusami.Morbiacorcietnislhendreritmollis.Suspendisse</tspan><tspan
         x="-14.944 -9.4087791 -2.7946093 5.5072255 10.488525 14.417775 18.347025 23.328323 30.33004 37.525028 41.42738 46.40868 53.077644 58.612865 63.040245 70.207336 75.188637 80.444908 84.319359 88.746742 95.748459 102.26001 106.68739 109.455 112.22261 116.64999 121.90626 125.78072 130.2081 134.13734 139.3956 144.93082 152.09792 159.81894 165.0752 170.61043 173.37804 176.14565 181.12694 188.12866 195.32365 200.85887 211.90042 215.82967 221.08992 225.5173 228.28491 231.05252 237.72148 243.2567 248.23801 252.11246 257.37271 262.63098 268.15622 275.33328 281.13751 285.56488 291.1001 296.08139 299.95584 302.72345 308.2587 313.79391 320.46286 324.89026"
         y="191.283"
         id="tspan44">utmassa.Crasnecante.Pellentesqueanulla.Cumsociisnatoquepenatibuset</tspan><tspan
         x="-14.944 -6.6421652 -1.6608654 3.3204346 8.8556547 11.623265 18.750509 24.28573 27.053341 34.17062 39.705841 44.687141 48.589493 52.463947 57.999168 61.90152 64.669128 69.096512 74.352776 81.425224 89.727058 94.708359 99.96463 103.83908 108.26646 112.19571 118.19121 123.72643 128.70773 132.63698 137.06436 141.49173 145.3662 150.90141 157.99179 161.89415 164.66176 170.19698 172.96458 177.39197 182.92719 185.69479 191.23001 198.35725 206.38014 211.91536 215.8446 222.99576 230.46771 233.23532 236.00293 241.2612 246.79642 251.77771 263.27756 267.15201 269.91962 275.45483 279.8822 282.64981 288.18503 293.72028 298.97653 306.04898 311.5842 315.48654 321.02176 326.00308"
         y="203.23801"
         id="tspan46">magnisdisparturientmontes,nasceturridiculusmus.Aliquamtincidunturna.</tspan><tspan
         x="-14.944 -7.4720502 -1.9368294 0.83078086 3.5983911 11.897237 17.432457 20.200068 22.967678 27.948978 36.250813 40.678192 45.659492 49.561844 55.376015 59.803394 67.023293 72.012558 76.439941 80.369194 84.243645 87.011253 92.546478 98.081696 100.8493 106.37457 118.00391 121.87836 127.41358 131.31593 136.85115 139.61876 143.54802 150.73901 157.24062 161.66798 164.43561 167.20322 171.63058 176.89682 180.77127 185.19865 189.1279 194.38617 199.92139 207.66631 212.09369 217.62891 221.53127 225.46051 230.99573 238.24252 241.01013 246.54536 250.97273 254.8472 260.38242 267.63916 275.94101 280.9223 286.45752 290.35986 293.1275 297.05673"
         y="215.19299"
         id="tspan48">Nullaullamcorpervestibulumturpis.Pellentesquecursusluctusmauris.</tspan><tspan
         x="0 7.4719501 13.007171 15.774781 18.542391 27.040489 35.342323 40.323624 43.091232 47.518612 51.447865 56.983082 61.964382 67.499603 75.997704 81.80191 86.793175 90.685562 94.56002 98.434471 101.20208 105.07654 110.05784 117.47699 123.01221 125.77982 130.76112 139.06296 146.84175 154.45218 159.43349 164.9687 169.39609 177.34026 180.38483 184.81221 187.57982 190.34743 197.79347 202.22086 206.1232 211.10451 214.97896 221.31319 225.74055 230.72186 236.25708 241.23839 246.77361 254.71777 260.25299 265.23431 270.76953 277.09378 282.08304 287.06436 289.83197 295.36719 299.24164 304.77686 309.75815 317.13943 322.12076 325.99521"
         y="227.14799"
         id="tspan50">Nullamalesuadaporttitordiam.Donecfeliserat,conguenon,volutpatat,</tspan><tspan
         x="-14.944 -11.069545 -8.3019342 -2.7667141 1.6606654 4.4282756 9.9634962 15.498716 20.754984 28.325563 32.20002 36.102371 38.86998 42.799229 46.673683 49.441296 54.699554 60.234776 64.662155 71.205589 73.973198 76.740814 82.554985 86.982361 90.884712 95.866013 104.17283 111.64478 114.41239 119.11275 124.09405 132.12689 137.66211 145.27753 150.53578 153.30339 158.2827 162.71008 166.61243 170.51479 179.1922 182.23677 186.66415 190.5665 198.86835 203.29572 208.55199 212.42644 217.96167 229.95963 233.0042 237.43158 240.19919 242.9668 246.89604 255.20285 262.81329 267.79459 273.3298 277.7572 285.87073 291.40594 296.38724 301.64352 307.17874 315.48056 323.51343"
         y="239.103"
         id="tspan52">tincidunttristique,libero.Vivamusviverrafermentumfelis.Donecnonummy</tspan><tspan
         x="-14.944 -9.1298265 -4.7024474 -1.9348369 0.83277339 5.2601528 10.51642 14.390876 18.818254 22.747505 28.005764 33.540985 42.312057 47.293358 52.549625 56.42408 60.85146 71.110947 77.891495 83.426712 88.408012 92.337265 96.764641 99.532249 102.29986 107.83508 116.10802 121.08932 126.62454 129.39215 134.92738 137.69499 141.62424 146.05162 148.81923 154.35445 163.67944 167.60869 172.03607 180.33791 186.15208 190.57945 198.8255 203.25288 206.02049 208.7881 212.66255 222.92204 229.70259 233.60493 238.58624 241.35385 251.22279 254.26736 258.69476 262.59711 270.89893 275.32632 280.59253 284.46701 290.00223 302.64774 310.94958 315.93088 319.86014 323.78937"
         y="251.05901"
         id="tspan54">pellentesqueante.Phasellusadipiscingsemperelit.Proinfermentummassa</tspan><tspan
         x="-14.944 -9.9626999 -1.7196448 3.5386155 9.0738363 14.055136 22.35697 31.02244 36.557659 40.985039 50.335938 55.871159 58.638767 63.620068 75.727615 79.602074 85.137291 89.039642 94.57486 97.342476 101.27172 107.97456 116.27639 121.25769 124.02531 128.45268 132.39189 136.25639 139.024 147.26706 152.52531 155.29292 159.16737 164.14868 168.57607 175.2789 180.81412 183.58173 188.56303 192.9904 197.41779 201.32013 206.30144 213.99156 218.97287 225.6757 233.97754 238.95883 241.72646 246.15382 250.08308 253.95753 256.72513 264.9682 270.50342 274.93079 279.35818 286.061 288.82861 293.25601 298.2373 306.90277 316.03549 321.01678 325.44418"
         y="263.01401"
         id="tspan56">acquam.Seddiamturpis,molestievitae,placerata,molestienec,leo.Mae-</tspan><tspan
         x="-14.944 -10.516621 -6.089241 -0.55402058 4.4272795 12.052653 14.820264 19.801563 24.228943 26.996553 32.531773 35.299385 40.280685 48.587502 56.059452 61.040749 73.038712 75.80632 81.341537 85.27079 90.806007 102.79401 105.56161 108.32922 113.31052 118.84575 121.61336 126.59466 133.14806 137.57544 140.34305 144.77043 147.53804 150.58261 155.00998 160.54521 169.77655 174.75786 178.63231 185.1857 190.16701 194.59439 199.02176 204.55699 212.85883 216.78807 221.76936 230.99075 236.52597 240.95335 245.38074 251.93413 255.86337 261.39859 265.32785 269.75522 272.52283 278.05804 280.82568 288.39624 293.37756 299.93094 302.69855 308.23376 312.16302 317.69824 326.00009"
         y="274.96899"
         id="tspan58">cenaslacinia.Namipsumligula,eleifendat,accumsannec,suscipita,ipsum.</tspan><tspan
         x="-14.944 -5.8112845 -0.82998461 3.0723658 8.6075869 14.264351 19.799572 22.567181 27.548481 33.083702 38.618923 41.386532 48.160103 50.917751 53.685364 58.666664 64.201881 66.96949 74.849907 77.894478 82.321861 87.857079 92.838379 95.605988 100.58729 107.3509 115.65273 120.63403 125.61533 131.15056 136.13185 143.18338 150.65533 156.19055 161.72577 169.05228 173.47964 176.24725 180.67464 183.44225 186.48682 190.9142 196.44942 204.87379 209.30118 214.28247 219.81769 223.74695 228.17433 233.43259 238.9678 243.94911 250.71271 253.48033 258.46164 262.36398 266.79135 275.0932 282.14471 287.67993 292.10733 300.54166 303.30927 308.29056 312.71796 315.48557 321.02078 323.78839"
         y="286.92401"
         id="tspan60">Morbiblanditligulafeugiatmagna.Nunceleifendconsequatlorem.Sedlacinia</tspan><tspan
         x="-14.944 -9.6877327 -4.1525116 -1.3849014 1.3827089 10.418787 15.677048 18.444658 22.319113 27.300413 35.77261 40.199986 45.735207 48.502819 56.804653 66.187431 72.689026 77.126366 79.893974 82.651619 87.088966 92.34523 96.219688 100.64706 104.57632 109.83458 115.3698 123.842 127.71645 130.48405 136.01927 140.44666 143.21426 148.74948 154.28471 159.54097 167.47021 173.00543 178.54065 182.44301 187.97823 195.95229 200.94156 205.36894 212.18137 220.4832 225.46449 230.4458 235.98102 240.96231 250.34509 253.9426 259.19885 263.0733 267.5007 272.48199 276.90936 284.86649 290.40173 295.38303 304.96304 309.40039 314.92566 317.69327 325.99509"
         y="298.879"
         id="tspan62">nullavitaeenim.Pellentesquetinciduntpurusvelmagna.Integernonenim.</tspan><tspan
         x="-14.944 -8.1634541 -4.2611041 0.72019601 5.1475754 9.0768251 13.504205 18.760471 25.52408 29.95146 35.486683 38.254292 42.18354 50.485374 55.745628 64.170006 69.42627 74.961494 80.496712 87.813248 92.240623 100.665 106.20022 111.73544 115.63779 121.17301 125.10226 132.15379 139.76422 144.74551 150.28075 154.70811 162.02466 167.55988 170.32748 176.1317 180.56903 186.10426 191.62952 197.16473 208.35573 213.61398 219.1492 224.13051 235.32149 238.0891 246.51347 250.38794 254.81531 257.58292 260.35052 265.88574 269.815 276.86655 284.33847 289.87369 292.64133 295.40894 300.39023 311.58121 316.00861 321.54382 325.44617"
         y="310.83401"
         id="tspan64">Praesenteuismodnunceupurus.Donecbibendumquamintellus.Nullamcur-</tspan><tspan
         x="-14.944 -11.01475 -5.4795299 2.1059937 7.6412144 13.176435 15.944045 21.202305 23.969915 29.505136 34.486435 42.035099 44.802708 49.230087 53.657467 57.531921 63.067142 66.996391 75.193619 82.804047 87.785347 93.320572 97.747948 105.82164 110.24902 117.77975 126.08158 128.8492 137.04642 144.51837 149.49966 161.44781 166.70609 172.2413 175.00891 180.54413 186.07935 189.95381 194.9351 198.80956 206.89322 215.19505 219.62242 223.49689 229.0321 236.61763 241.04501 250.22653 254.65392 260.18915 262.95676 271.25858 279.45581 286.09091 290.51828 294.44754 298.32199 301.0896 306.62482 312.16003 314.92764 320.46286"
         y="322.79001"
         id="tspan66">suspulvinarlectus.Donecetmi.Namvulputatemetuseuenim.Vestibulum</tspan><tspan
         x="-14.944 -9.1298265 -4.7024474 -1.9348369 0.83277339 5.2601528 10.51642 14.390876 18.818254 22.747505 28.005764 33.540985 41.285912 44.330482 48.757862 51.525471 54.293079 61.549839 65.977219 74.829987 83.131821 88.113121 92.042366 95.971619 100.95292"
         y="334.745"
         id="tspan68">pellentesquefeliseumassa.</tspan><tspan
         x="154.42101"
         y="567.87097"
         id="tspan70">1</tspan></text></g></svg>
