<?xml version="1.0" encoding="UTF-8" standalone="no"?>
<svg
   xmlns:dc="http://purl.org/dc/elements/1.1/"
   xmlns:cc="http://creativecommons.org/ns#"
   xmlns:rdf="http://www.w3.org/1999/02/22-rdf-syntax-ns#"
   xmlns:svg="http://www.w3.org/2000/svg"
   xmlns="http://www.w3.org/2000/svg"
   version="1.1"
   id="svg2"
   xml:space="preserve"
   width="793.70135"
   height="1122.52"
   viewBox="0 0 793.70135 1122.52"><metadata
     id="metadata8"><rdf:RDF><cc:Work
         rdf:about=""><dc:format>image/svg+xml</dc:format><dc:type
           rdf:resource="http://purl.org/dc/dcmitype/StillImage" /></cc:Work></rdf:RDF></metadata><defs
     id="defs6" /><g
     id="g10"
     transform="matrix(1.3333333,0,0,-1.3333333,0,1122.52)"><g
       id="g12"
       transform="translate(133.768,716.889)"><path
         d="M 0,0 H 93.981"
         style="fill:none;stroke:#000000;stroke-width:0.398;stroke-linecap:butt;stroke-linejoin:miter;stroke-miterlimit:10;stroke-dasharray:none;stroke-opacity:1"
         id="path14" /></g><text
       transform="matrix(1,0,0,-1,139.746,708.321)"
       style="font-variant:normal;font-weight:normal;font-size:9.9626px;font-family:CMR10;-inkscape-font-specification:CMR10;writing-mode:lr-tb;fill:#000000;fill-opacity:1;fill-rule:nonzero;stroke:none"
       id="text18"><tspan
         x="0 4.4273796 8.8547592 11.622369 14.389979"
         y="0"
         id="tspan16">cell1</tspan></text><g
       id="g20"
       transform="translate(165.095,704.734)"><path
         d="M 0,0 V 11.955"
         style="fill:none;stroke:#000000;stroke-width:0.398;stroke-linecap:butt;stroke-linejoin:miter;stroke-miterlimit:10;stroke-dasharray:none;stroke-opacity:1"
         id="path22" /></g><text
       transform="matrix(1,0,0,-1,171.073,708.321)"
       style="font-variant:normal;font-weight:normal;font-size:9.9626px;font-family:CMR10;-inkscape-font-specification:CMR10;writing-mode:lr-tb;fill:#000000;fill-opacity:1;fill-rule:nonzero;stroke:none"
       id="text26"><tspan
         x="0 4.4273796 8.8547592 11.622369 14.389979 31.326399 35.75378 40.18116 42.948769 45.716377"
         y="0"
         id="tspan24">cell2cell3</tspan></text><g
       id="g28"
       transform="translate(133.768,704.535)"><path
         d="M 0,0 H 93.981"
         style="fill:none;stroke:#000000;stroke-width:0.398;stroke-linecap:butt;stroke-linejoin:miter;stroke-miterlimit:10;stroke-dasharray:none;stroke-opacity:1"
         id="path30" /></g><text
       transform="matrix(1,0,0,-1,139.746,695.967)"
       style="font-variant:normal;font-weight:normal;font-size:9.9626px;font-family:CMR10;-inkscape-font-specification:CMR10;writing-mode:lr-tb;fill:#000000;fill-opacity:1;fill-rule:nonzero;stroke:none"
       id="text34"><tspan
         x="0 4.4273796 8.8547592 11.622369 14.389979"
         y="0"
         id="tspan32">cell4</tspan></text><g
       id="g36"
       transform="translate(165.095,692.38)"><path
         d="M 0,0 V 11.955"
         style="fill:none;stroke:#000000;stroke-width:0.398;stroke-linecap:butt;stroke-linejoin:miter;stroke-miterlimit:10;stroke-dasharray:none;stroke-opacity:1"
         id="path38" /></g><text
       transform="matrix(1,0,0,-1,171.073,695.967)"
       style="font-variant:normal;font-weight:normal;font-size:9.9626px;font-family:CMR10;-inkscape-font-specification:CMR10;writing-mode:lr-tb;fill:#000000;fill-opacity:1;fill-rule:nonzero;stroke:none"
       id="text44"><tspan
         x="0 4.4273796 8.8547592 11.622369 14.389979 31.326399 35.75378 40.18116 42.948769 45.716377"
         y="0"
         id="tspan40">cell5cell6</tspan><tspan
         x="-31.327 -26.89962 -22.47224 -19.70463 -16.937021"
         y="11.955"
         id="tspan42">cell7</tspan></text><g
       id="g46"
       transform="translate(165.095,680.425)"><path
         d="M 0,0 V 11.955"
         style="fill:none;stroke:#000000;stroke-width:0.398;stroke-linecap:butt;stroke-linejoin:miter;stroke-miterlimit:10;stroke-dasharray:none;stroke-opacity:1"
         id="path48" /></g><text
       transform="matrix(1,0,0,-1,171.073,684.012)"
       style="font-variant:normal;font-weight:normal;font-size:9.9626px;font-family:CMR10;-inkscape-font-specification:CMR10;writing-mode:lr-tb;fill:#000000;fill-opacity:1;fill-rule:nonzero;stroke:none"
       id="text52"><tspan
         x="0 4.4273796 8.8547592 11.622369 14.389979 31.326399 35.75378 40.18116 42.948769 45.716377"
         y="0"
         id="tspan50">cell8cell9</tspan></text><g
       id="g54"
       transform="translate(133.768,680.226)"><path
         d="M 0,0 H 93.981"
         style="fill:none;stroke:#000000;stroke-width:0.398;stroke-linecap:butt;stroke-linejoin:miter;stroke-miterlimit:10;stroke-dasharray:none;stroke-opacity:1"
         id="path56" /></g><text
       transform="matrix(1,0,0,-1,245.101,662.149)"
       style="font-variant:normal;font-weight:normal;font-size:9.9626px;font-family:CMR10;-inkscape-font-specification:CMR10;writing-mode:lr-tb;fill:#000000;fill-opacity:1;fill-rule:nonzero;stroke:none"
       id="text62"><tspan
         x="0 6.368094 11.349394 16.884615 19.652225 27.39715 32.378448 39.569454 46.764446 52.299664 55.067276 62.324032 65.091644 72.33844 80.36132 88.94709 93.374466 98.355766 103.89099 107.76544 110.53306 115.51435"
         y="0"
         id="tspan58">Table1:Thisismycaption</tspan><tspan
         x="58.032001"
         y="522.89398"
         id="tspan60">1</tspan></text></g></svg>
