<?xml version="1.0" encoding="UTF-8" standalone="no"?>
<svg
   xmlns:dc="http://purl.org/dc/elements/1.1/"
   xmlns:cc="http://creativecommons.org/ns#"
   xmlns:rdf="http://www.w3.org/1999/02/22-rdf-syntax-ns#"
   xmlns:svg="http://www.w3.org/2000/svg"
   xmlns="http://www.w3.org/2000/svg"
   version="1.1"
   id="svg2"
   xml:space="preserve"
   width="793.70135"
   height="1122.52"
   viewBox="0 0 793.70135 1122.52"><metadata
     id="metadata8"><rdf:RDF><cc:Work
         rdf:about=""><dc:format>image/svg+xml</dc:format><dc:type
           rdf:resource="http://purl.org/dc/dcmitype/StillImage" /></cc:Work></rdf:RDF></metadata><defs
     id="defs6" /><g
     id="g10"
     transform="matrix(1.3333333,0,0,-1.3333333,0,1122.52)"><g
       id="g12"
       transform="translate(110.854,715.892)"><path
         d="M 0,0 H 104.15"
         style="fill:none;stroke:#000000;stroke-width:0.398;stroke-linecap:butt;stroke-linejoin:miter;stroke-miterlimit:10;stroke-dasharray:none;stroke-opacity:1"
         id="path14" /></g><text
       transform="matrix(1,0,0,-1,116.832,705.581)"
       style="font-variant:normal;font-weight:normal;font-size:11.9552px;font-family:CMR12;-inkscape-font-specification:CMR12;writing-mode:lr-tb;fill:#000000;fill-opacity:1;fill-rule:nonzero;stroke:none"
       id="text18"><tspan
         x="0 5.2029033 10.405807 13.65762 16.909435"
         y="0"
         id="tspan16">cell1</tspan></text><g
       id="g20"
       transform="translate(145.571,701.247)"><path
         d="M 0,0 V 14.446"
         style="fill:none;stroke:#000000;stroke-width:0.398;stroke-linecap:butt;stroke-linejoin:miter;stroke-miterlimit:10;stroke-dasharray:none;stroke-opacity:1"
         id="path22" /></g><text
       transform="matrix(1,0,0,-1,151.549,705.581)"
       style="font-variant:normal;font-weight:normal;font-size:11.9552px;font-family:CMR12;-inkscape-font-specification:CMR12;writing-mode:lr-tb;fill:#000000;fill-opacity:1;fill-rule:nonzero;stroke:none"
       id="text26"><tspan
         x="0 5.2029033 10.405807 13.65762 16.909435 34.717899 39.920803 45.123707 48.375523 51.627335"
         y="0"
         id="tspan24">cell2cell3</tspan></text><g
       id="g28"
       transform="translate(110.854,701.048)"><path
         d="M 0,0 H 104.15"
         style="fill:none;stroke:#000000;stroke-width:0.398;stroke-linecap:butt;stroke-linejoin:miter;stroke-miterlimit:10;stroke-dasharray:none;stroke-opacity:1"
         id="path30" /></g><text
       transform="matrix(1,0,0,-1,116.832,690.737)"
       style="font-variant:normal;font-weight:normal;font-size:11.9552px;font-family:CMR12;-inkscape-font-specification:CMR12;writing-mode:lr-tb;fill:#000000;fill-opacity:1;fill-rule:nonzero;stroke:none"
       id="text34"><tspan
         x="0 5.2029033 10.405807 13.65762 16.909435"
         y="0"
         id="tspan32">cell4</tspan></text><g
       id="g36"
       transform="translate(145.571,686.403)"><path
         d="M 0,0 V 14.446"
         style="fill:none;stroke:#000000;stroke-width:0.398;stroke-linecap:butt;stroke-linejoin:miter;stroke-miterlimit:10;stroke-dasharray:none;stroke-opacity:1"
         id="path38" /></g><text
       transform="matrix(1,0,0,-1,151.549,690.737)"
       style="font-variant:normal;font-weight:normal;font-size:11.9552px;font-family:CMR12;-inkscape-font-specification:CMR12;writing-mode:lr-tb;fill:#000000;fill-opacity:1;fill-rule:nonzero;stroke:none"
       id="text44"><tspan
         x="0 5.2029033 10.405807 13.65762 16.909435 34.717899 39.920803 45.123707 48.375523 51.627335"
         y="0"
         id="tspan40">cell5cell6</tspan><tspan
         x="-34.716999 -29.514097 -24.311193 -21.05938 -17.807566"
         y="14.446"
         id="tspan42">cell7</tspan></text><g
       id="g46"
       transform="translate(145.571,671.957)"><path
         d="M 0,0 V 14.446"
         style="fill:none;stroke:#000000;stroke-width:0.398;stroke-linecap:butt;stroke-linejoin:miter;stroke-miterlimit:10;stroke-dasharray:none;stroke-opacity:1"
         id="path48" /></g><text
       transform="matrix(1,0,0,-1,151.549,676.291)"
       style="font-variant:normal;font-weight:normal;font-size:11.9552px;font-family:CMR12;-inkscape-font-specification:CMR12;writing-mode:lr-tb;fill:#000000;fill-opacity:1;fill-rule:nonzero;stroke:none"
       id="text52"><tspan
         x="0 5.2029033 10.405807 13.65762 16.909435 34.717899 39.920803 45.123707 48.375523 51.627335"
         y="0"
         id="tspan50">cell8cell9</tspan></text><g
       id="g54"
       transform="translate(110.854,671.758)"><path
         d="M 0,0 H 104.15"
         style="fill:none;stroke:#000000;stroke-width:0.398;stroke-linecap:butt;stroke-linejoin:miter;stroke-miterlimit:10;stroke-dasharray:none;stroke-opacity:1"
         id="path56" /></g><text
       transform="matrix(1,0,0,-1,234.012,652.297)"
       style="font-variant:normal;font-weight:normal;font-size:11.9552px;font-family:CMR12;-inkscape-font-specification:CMR12;writing-mode:lr-tb;fill:#000000;fill-opacity:1;fill-rule:nonzero;stroke:none"
       id="text62"><tspan
         x="0 7.474391 13.327657 19.831285 23.083099 32.195354 38.048618 46.500946 54.955662 61.459293 64.711105 73.225601 76.477417 85.00386 94.424561 104.51236 109.71526 115.56853 122.07216 126.62469 129.87651 135.72978"
         y="0"
         id="tspan58">Table1:Thisismycaption</tspan><tspan
         x="68.186996"
         y="512.54401"
         id="tspan60">1</tspan></text></g></svg>
