<?xml version="1.0" encoding="UTF-8" standalone="no"?>
<svg
   xmlns:dc="http://purl.org/dc/elements/1.1/"
   xmlns:cc="http://creativecommons.org/ns#"
   xmlns:rdf="http://www.w3.org/1999/02/22-rdf-syntax-ns#"
   xmlns:svg="http://www.w3.org/2000/svg"
   xmlns="http://www.w3.org/2000/svg"
   version="1.1"
   id="svg2"
   xml:space="preserve"
   width="793.70135"
   height="1122.52"
   viewBox="0 0 793.70135 1122.52"><metadata
     id="metadata8"><rdf:RDF><cc:Work
         rdf:about=""><dc:format>image/svg+xml</dc:format><dc:type
           rdf:resource="http://purl.org/dc/dcmitype/StillImage" /></cc:Work></rdf:RDF></metadata><defs
     id="defs6" /><g
     id="g10"
     transform="matrix(1.3333333,0,0,-1.3333333,0,1122.52)"><g
       id="g12"
       transform="translate(110.854,715.892)"><path
         d="M 0,0 H 167.533"
         style="fill:none;stroke:#000000;stroke-width:0.398;stroke-linecap:butt;stroke-linejoin:miter;stroke-miterlimit:10;stroke-dasharray:none;stroke-opacity:1"
         id="path14" /></g><text
       transform="matrix(1,0,0,-1,116.832,694.772)"
       style="font-variant:normal;font-weight:normal;font-size:24.7871px;font-family:CMR17;-inkscape-font-specification:CMR17;writing-mode:lr-tb;fill:#000000;fill-opacity:1;fill-rule:nonzero;stroke:none"
       id="text18"><tspan
         x="0 10.073478 20.146955 26.333815 32.520676"
         y="0"
         id="tspan16">cell1</tspan></text><g
       id="g20"
       transform="translate(166.699,685.805)"><path
         d="M 0,0 V 29.888"
         style="fill:none;stroke:#000000;stroke-width:0.398;stroke-linecap:butt;stroke-linejoin:miter;stroke-miterlimit:10;stroke-dasharray:none;stroke-opacity:1"
         id="path22" /></g><text
       transform="matrix(1,0,0,-1,172.676,694.772)"
       style="font-variant:normal;font-weight:normal;font-size:24.7871px;font-family:CMR17;-inkscape-font-specification:CMR17;writing-mode:lr-tb;fill:#000000;fill-opacity:1;fill-rule:nonzero;stroke:none"
       id="text26"><tspan
         x="0 10.073478 20.146955 26.333815 32.520676 55.835423 65.908897 75.982376 82.169235 88.356094"
         y="0"
         id="tspan24">cell2cell3</tspan></text><g
       id="g28"
       transform="translate(110.854,685.606)"><path
         d="M 0,0 H 167.533"
         style="fill:none;stroke:#000000;stroke-width:0.398;stroke-linecap:butt;stroke-linejoin:miter;stroke-miterlimit:10;stroke-dasharray:none;stroke-opacity:1"
         id="path30" /></g><text
       transform="matrix(1,0,0,-1,116.832,664.485)"
       style="font-variant:normal;font-weight:normal;font-size:24.7871px;font-family:CMR17;-inkscape-font-specification:CMR17;writing-mode:lr-tb;fill:#000000;fill-opacity:1;fill-rule:nonzero;stroke:none"
       id="text34"><tspan
         x="0 10.073478 20.146955 26.333815 32.520676"
         y="0"
         id="tspan32">cell4</tspan></text><g
       id="g36"
       transform="translate(166.699,655.519)"><path
         d="M 0,0 V 29.888"
         style="fill:none;stroke:#000000;stroke-width:0.398;stroke-linecap:butt;stroke-linejoin:miter;stroke-miterlimit:10;stroke-dasharray:none;stroke-opacity:1"
         id="path38" /></g><text
       transform="matrix(1,0,0,-1,172.676,664.485)"
       style="font-variant:normal;font-weight:normal;font-size:24.7871px;font-family:CMR17;-inkscape-font-specification:CMR17;writing-mode:lr-tb;fill:#000000;fill-opacity:1;fill-rule:nonzero;stroke:none"
       id="text44"><tspan
         x="0 10.073478 20.146955 26.333815 32.520676 55.835423 65.908897 75.982376 82.169235 88.356094"
         y="0"
         id="tspan40">cell5cell6</tspan><tspan
         x="-55.844002 -45.770523 -35.697044 -29.510185 -23.323324"
         y="29.888"
         id="tspan42">cell7</tspan></text><g
       id="g46"
       transform="translate(166.699,625.631)"><path
         d="M 0,0 V 29.888"
         style="fill:none;stroke:#000000;stroke-width:0.398;stroke-linecap:butt;stroke-linejoin:miter;stroke-miterlimit:10;stroke-dasharray:none;stroke-opacity:1"
         id="path48" /></g><text
       transform="matrix(1,0,0,-1,172.676,634.597)"
       style="font-variant:normal;font-weight:normal;font-size:24.7871px;font-family:CMR17;-inkscape-font-specification:CMR17;writing-mode:lr-tb;fill:#000000;fill-opacity:1;fill-rule:nonzero;stroke:none"
       id="text52"><tspan
         x="0 10.073478 20.146955 26.333815 32.520676 55.835423 65.908897 75.982376 82.169235 88.356094"
         y="0"
         id="tspan50">cell8cell9</tspan></text><g
       id="g54"
       transform="translate(110.854,625.432)"><path
         d="M 0,0 H 167.533"
         style="fill:none;stroke:#000000;stroke-width:0.398;stroke-linecap:butt;stroke-linejoin:miter;stroke-miterlimit:10;stroke-dasharray:none;stroke-opacity:1"
         id="path56" /></g><text
       transform="matrix(1,0,0,-1,234.012,605.971)"
       style="font-variant:normal;font-weight:normal;font-size:11.9552px;font-family:CMR12;-inkscape-font-specification:CMR12;writing-mode:lr-tb;fill:#000000;fill-opacity:1;fill-rule:nonzero;stroke:none"
       id="text62"><tspan
         x="0 7.474391 13.327657 19.831285 23.083099 32.195354 38.048618 46.500946 54.955662 61.459293 64.711105 73.225601 76.477417 85.00386 94.424561 104.51236 109.71526 115.56853 122.07216 126.62469 129.87651 135.72978"
         y="0"
         id="tspan58">Table1:Thisismycaption</tspan><tspan
         x="68.186996"
         y="466.21799"
         id="tspan60">1</tspan></text></g></svg>
