<?xml version="1.0" encoding="UTF-8" standalone="no"?>
<svg
   xmlns:dc="http://purl.org/dc/elements/1.1/"
   xmlns:cc="http://creativecommons.org/ns#"
   xmlns:rdf="http://www.w3.org/1999/02/22-rdf-syntax-ns#"
   xmlns:svg="http://www.w3.org/2000/svg"
   xmlns="http://www.w3.org/2000/svg"
   version="1.1"
   id="svg2"
   xml:space="preserve"
   width="793.70135"
   height="1122.52"
   viewBox="0 0 793.70135 1122.52"><metadata
     id="metadata8"><rdf:RDF><cc:Work
         rdf:about=""><dc:format>image/svg+xml</dc:format><dc:type
           rdf:resource="http://purl.org/dc/dcmitype/StillImage" /></cc:Work></rdf:RDF></metadata><defs
     id="defs6" /><g
     id="g10"
     transform="matrix(1.3333333,0,0,-1.3333333,0,1122.52)"><g
       id="g12"
       transform="translate(168.72,715.623)"><path
         d="M 0,0 H 272.812"
         style="fill:none;stroke:#000000;stroke-width:0.936;stroke-linecap:butt;stroke-linejoin:miter;stroke-miterlimit:10;stroke-dasharray:none;stroke-opacity:1"
         id="path14" /></g><text
       transform="matrix(1,0,0,-1,301.776,701.697)"
       style="font-variant:normal;font-weight:normal;font-size:11.9552px;font-family:CMR12;-inkscape-font-specification:CMR12;writing-mode:lr-tb;fill:#000000;fill-opacity:1;fill-rule:nonzero;stroke:none"
       id="text20"><tspan
         x="0 5.8532658 11.706532 17.559797 85.364906 91.218178 97.071442 102.92471"
         y="0"
         id="tspan16">20192020</tspan><tspan
         x="-127.079 -117.97392 -111.47029 -104.96666 -100.41412 -94.56086 -88.382408 -83.765312 -77.912041 -68.156601 -65.062599 -63.604061 -57.750793 -51.247166 -25.003111 -19.149845 -12.969007 -8.4164667 -2.563201 0.68861341 21.09614 26.949406 33.453033 39.956665 45.159565 60.366581 66.219849 72.400688 76.953224 82.806488 86.058304 106.46584 112.3191 118.82272 125.32635 130.52925"
         y="14.446"
         id="tspan18">Opptaksomr˚adeantallandelantallandel</tspan></text><g
       id="g22"
       transform="translate(168.72,680.566)"><path
         d="M 0,0 H 272.812"
         style="fill:none;stroke:#000000;stroke-width:0.585;stroke-linecap:butt;stroke-linejoin:miter;stroke-miterlimit:10;stroke-dasharray:none;stroke-opacity:1"
         id="path24" /></g><text
       transform="matrix(1,0,0,-1,174.697,666.816)"
       style="font-variant:normal;font-weight:normal;font-size:11.9552px;font-family:CMR12;-inkscape-font-specification:CMR12;writing-mode:lr-tb;fill:#000000;fill-opacity:1;fill-rule:nonzero;stroke:none"
       id="text34"><tspan
         x="0 8.7751169 13.97802 17.229834 21.846933 30.947231 39.722347 45.575615 50.128155 113.45485 119.30811 125.16138 142.96985 148.8231 154.67638 157.92819 165.73015 198.82214 204.67542 210.52869 228.33714 234.19041 240.04369 243.29549 251.09746"
         y="0"
         id="tspan26">HelseNord15265,8%11564,3%</tspan><tspan
         x="0 8.7751169 13.97802 17.229834 21.846933 30.947231 41.673435 44.925251 51.428879 55.981419 59.883598 68.658714 74.511978 79.064522 84.917786 113.45724 119.31051 125.16377 142.97224 148.8255 154.67877 157.93059 165.73254 198.82454 204.67781 210.53107 228.33954 234.19281 240.04607 243.29788 251.09985"
         y="14.446"
         id="tspan28">HelseMidt-Norge20856,7%16561,8%</tspan><tspan
         x="0 8.7751169 13.97802 17.229834 21.846933 30.947231 38.753975 43.956879 48.573978 113.46441 119.31768 125.17094 142.97942 148.83267 154.67398 157.9258 165.73972 198.83171 204.68498 210.53824 228.34671 234.18802 240.04129 243.29311 251.10703"
         y="28.892"
         id="tspan30">HelseVest24761,5%20561,5%</tspan><tspan
         x="0 8.7751169 13.97802 17.229834 21.846933 30.947231 37.450859 43.304127 47.856667 51.758842 60.863922 65.481018 113.45485 119.30811 125.16138 142.96985 148.8231 154.67638 157.92819 165.73015 198.82214 204.67542 210.52869 228.33714 234.19041 240.04369 243.29549 251.09746"
         y="43.338001"
         id="tspan32">HelseSør-Øst64862,8%55764,1%</tspan></text><g
       id="g36"
       transform="translate(168.72,616.793)"><path
         d="M 0,0 H 272.812"
         style="fill:none;stroke:#000000;stroke-width:0.585;stroke-linecap:butt;stroke-linejoin:miter;stroke-miterlimit:10;stroke-dasharray:none;stroke-opacity:1"
         id="path38" /></g><text
       transform="matrix(1,0,0,-1,174.697,603.042)"
       style="font-variant:normal;font-weight:normal;font-size:11.9552px;font-family:CMR12;-inkscape-font-specification:CMR12;writing-mode:lr-tb;fill:#000000;fill-opacity:1;fill-rule:nonzero;stroke:none"
       id="text42"><tspan
         x="0 8.7751169 14.628383 19.180923 25.034189 105.65049 113.46441 119.31768 125.17094 142.97942 148.83267 154.67398 157.9258 165.73972 191.02496 198.82693 204.68019 210.53346 228.34193 234.19519 240.04846 243.30028 251.10223"
         y="0"
         id="tspan40">Norge125561,9%104263,2%</tspan></text><g
       id="g44"
       transform="translate(168.72,596.181)"><path
         d="M 0,0 H 272.812"
         style="fill:none;stroke:#000000;stroke-width:0.936;stroke-linecap:butt;stroke-linejoin:miter;stroke-miterlimit:10;stroke-dasharray:none;stroke-opacity:1"
         id="path46" /></g><text
       transform="matrix(1,0,0,-1,234.012,563.501)"
       style="font-variant:normal;font-weight:normal;font-size:11.9552px;font-family:CMR12;-inkscape-font-specification:CMR12;writing-mode:lr-tb;fill:#000000;fill-opacity:1;fill-rule:nonzero;stroke:none"
       id="text52"><tspan
         x="0 7.474391 13.327657 19.831285 23.083099 32.195354 38.048618 46.500946 54.955662 61.459293 64.711105 73.225601 76.477417 85.00386 94.424561 104.51236 109.71526 115.56853 122.07216 126.62469 129.87651 135.72978"
         y="0"
         id="tspan48">Table1:Thisismycaption</tspan><tspan
         x="68.186996"
         y="423.74799"
         id="tspan50">1</tspan></text></g></svg>
